<?xml version="1.0" encoding="UTF-8"?><!DOCTYPE svg PUBLIC "-//W3C//DTD SVG 1.1//EN" "http://www.w3.org/Graphics/SVG/1.1/DTD/svg11.dtd"><svg xmlns="http://www.w3.org/2000/svg"><symbol id="compra-segura" viewBox="0 0 96.6 96.6"><circle cx="48.3" cy="48.3" r="48.3" fill="#FFF"/><g fill="#157854"><path d="M10.8 23.4C9.8 24 9 24.9 8.4 26c-.5 1.1-.8 2.4-.8 3.8 0 2.3.6 4.1 1.7 5.4 1.1 1.3 2.7 1.9 4.7 1.9 1.4 0 2.6-.2 3.5-.5v-.9c-1 .3-2.1.5-3.3.5-1.8 0-3.2-.6-4.1-1.7s-1.5-2.7-1.5-4.7.5-3.5 1.5-4.7c1-1.1 2.4-1.7 4.2-1.7 1.1 0 2.2.3 3.3.8l.4-.9c-1.1-.5-2.3-.8-3.7-.8-1.3 0-2.5.3-3.5.9zM31.3 24.4c-1.1-1.3-2.7-2-4.7-2s-3.5.7-4.7 2c-1.1 1.3-1.7 3.1-1.7 5.3 0 2.3.6 4.1 1.7 5.4 1.1 1.3 2.7 2 4.7 2s3.5-.7 4.7-2c1.1-1.3 1.7-3.1 1.7-5.4-.1-2.2-.6-4-1.7-5.3zm-.8 10.1c-.9 1.1-2.2 1.7-3.9 1.7-1.7 0-3-.6-3.9-1.7-.9-1.1-1.4-2.7-1.4-4.7s.5-3.6 1.4-4.7c.9-1.1 2.2-1.7 3.9-1.7 1.7 0 3 .5 3.9 1.6.9 1.1 1.4 2.7 1.4 4.7 0 2.2-.5 3.7-1.4 4.8zM37.5 26.3c0-.8 0-1.7-.1-2.5h.1l5.3 13.1h.6l5.3-13.1h.1c-.1.8-.1 1.6-.1 2.3v10.8h1V22.7h-1.5l-5 12.5h-.1l-5-12.5h-1.5v14.2h1V26.3zM57.5 22.7H54v14.2h1V31h2.2c1.7 0 3-.4 4-1.1s1.4-1.8 1.4-3.2c-.1-2.6-1.7-4-5.1-4zm2.9 6.7c-.7.5-1.9.8-3.5.8h-2v-6.6h2.4c1.4 0 2.5.3 3.1.8.7.5 1 1.3 1 2.4.1 1.2-.3 2.1-1 2.6zM71.4 30.4c1-.3 1.8-.8 2.3-1.4.5-.7.8-1.5.8-2.4 0-1.3-.4-2.3-1.3-2.9s-2.1-1-3.9-1h-3.4v14.2h1v-6.2h3.5l3.7 6.2h1.2l-3.9-6.5zm-1.8-.5h-2.7v-6.3h2.4c1.5 0 2.5.2 3.2.7s1 1.3 1 2.4c0 1-.3 1.8-1 2.4-.7.5-1.7.8-2.9.8zM79.1 31.9h5.8l2 5H88l-5.6-14.3h-.6L76 36.9h1.1l2-5zm2.4-6c.2-.5.4-1.1.6-1.7.2.7.4 1.3.6 1.7l1.9 5.1h-5.1l2-5.1zM15.4 55.2c-.6-.4-1.5-.8-2.6-1.2-1.1-.4-1.9-.7-2.4-1-.5-.3-.8-.6-1-1-.2-.4-.3-.8-.3-1.4 0-.9.3-1.6 1-2.1s1.5-.8 2.6-.8 2.3.3 3.6.8l.4-.9c-1.2-.5-2.6-.8-4-.8s-2.5.4-3.4 1.1c-.8.8-1.3 1.7-1.3 2.8 0 1 .3 1.8.9 2.4.6.6 1.6 1.2 3.2 1.7 1 .4 1.8.7 2.4 1 .5.3.9.6 1.2 1 .2.4.4.8.4 1.4 0 .9-.4 1.7-1.1 2.2s-1.7.8-2.9.8c-1.7 0-3.1-.2-4.1-.7v1c1 .4 2.4.6 4.2.6 1.5 0 2.7-.4 3.7-1.1.9-.7 1.4-1.7 1.4-3 0-.7-.1-1.3-.4-1.7-.5-.3-.9-.7-1.5-1.1zM20.8 62.1H29v-1h-7.2v-6.4h6.8v-.9h-6.8v-5.7H29v-1h-8.2M38.8 55.5h4.5v5.3c-1 .4-2.1.6-3.5.6-2.1 0-3.7-.6-4.8-1.7-1.1-1.1-1.6-2.8-1.6-5.1 0-2.1.6-3.7 1.7-4.9 1.2-1.2 2.7-1.8 4.7-1.8 1.4 0 2.7.3 4 .9l.4-.9c-1.3-.6-2.8-.9-4.4-.9-1.5 0-2.8.3-4 1-1.2.6-2.1 1.6-2.7 2.7-.6 1.2-.9 2.5-.9 4.1 0 2.4.6 4.3 1.9 5.7s3.1 2 5.4 2c1.8 0 3.4-.3 4.9-.9v-6.8h-5.5v.7zM58.5 56.9c0 1.4-.4 2.5-1.2 3.3-.8.8-1.9 1.2-3.3 1.2-1.5 0-2.6-.4-3.4-1.2s-1.2-1.9-1.2-3.4v-9.7h-1.1v9.7c0 1.7.5 3.1 1.5 4.1 1 1 2.3 1.5 4.1 1.5 1.8 0 3.2-.5 4.2-1.5s1.5-2.3 1.5-4v-9.7h-1v9.7zM72.4 53.8c.5-.7.8-1.5.8-2.5 0-1.4-.4-2.4-1.3-3.1s-2.3-1-4.1-1h-3.6v15h1v-6.5h3.7l3.9 6.5H74l-4.1-6.8c1.1-.4 1.9-.9 2.5-1.6zm-4.4.9h-2.9v-6.6h2.5c1.5 0 2.7.3 3.3.8s1 1.3 1 2.5c0 1.1-.3 1.9-1 2.5s-1.6.8-2.9.8zM81 47.1l-6 15h1.2l2.1-5.3h6.1l2.1 5.3h1.2l-5.9-15H81zm3 8.8h-5.4l2.1-5.4c.2-.5.4-1.1.6-1.8.2.8.4 1.3.6 1.8l2.1 5.4z"/></g><path fill="#157854" d="M4 12.6h88.7v.8H4zM49.2 90l-5-4.9 1.6-2.8h6.7l1.6 2.8"/><g fill="#157854"><path d="M11 85.8c.2-.4.3-.8.3-1.4 0-.7-.2-1.2-.5-1.6-.3-.4-.8-.6-1.4-.6-.6 0-1.1.2-1.5.6-.3.4-.5.9-.5 1.6 0 .7.2 1.2.5 1.6.3.4.8.6 1.5.6h.2l.8 1h.7l-1-1.1c.4-.1.7-.3.9-.7zm-1.6.4c-.5 0-.8-.1-1.1-.4s-.4-.8-.4-1.4c0-.6.1-1 .4-1.3s.6-.4 1.1-.4c.5 0 .8.1 1.1.4s.4.7.4 1.3c0 .6-.1 1-.4 1.3s-.6.5-1.1.5zM15 85.1c0 .4-.1.6-.3.8s-.5.3-.8.3c-.4 0-.7-.1-.9-.3s-.3-.5-.3-.8v-2.8h-.5v2.8c0 .5.1.9.4 1.2s.7.4 1.2.4.9-.1 1.2-.4.4-.7.4-1.2v-2.8H15v2.8zM17.8 82.3l-1.7 4.3h.5l.5-1.4h1.7l.5 1.4h.5l-1.7-4.3h-.3zm-.5 2.5l.5-1.3c.1-.2.1-.4.2-.6.1.2.1.5.2.6l.5 1.3h-1.4zM21 82.3h-.5v4.3h2.4v-.5H21M23.6 82.3h.5v4.3h-.5zM26.6 82.3h-1.3v4.3h1.2c.7 0 1.3-.2 1.7-.6s.6-.9.6-1.6c0-.7-.2-1.2-.6-1.5s-1-.6-1.6-.6zm1.1 3.4c-.3.3-.7.4-1.3.4h-.6v-3.4h.7c.6 0 1 .1 1.2.4s.4.7.4 1.3c0 .6-.1 1-.4 1.3zM30.7 82.3L29 86.6h.5l.5-1.4h1.7l.5 1.4h.5L31 82.3h-.3zm-.5 2.5l.5-1.3c.1-.2.1-.4.2-.6.1.2.1.5.2.6l.5 1.3h-1.4zM34.7 82.3h-1.3v4.3h1.2c.7 0 1.3-.2 1.7-.6s.6-.9.6-1.6c0-.7-.2-1.2-.6-1.5s-.9-.6-1.6-.6zm1.2 3.4c-.3.3-.7.4-1.3.4H34v-3.4h.7c.6 0 1 .1 1.2.4s.4.7.4 1.3c0 .6-.1 1-.4 1.3zM37.8 86.6h2.4v-.5h-1.9v-1.5h1.8v-.5h-1.8v-1.3h1.9v-.5h-2.4M58.8 82.3l-1.7 4.3h.5l.5-1.4h1.7l.5 1.4h.5l-1.7-4.3h-.3zm-.5 2.5l.5-1.3c.1-.2.1-.4.2-.6.1.2.1.5.2.6l.5 1.3h-1.4zM64.2 83.5c0-.4-.1-.7-.4-.9-.3-.2-.6-.3-1.2-.3h-1.2v4.3h.6v-1.8h.9l1 1.8h.6l-1.2-1.9c.7-.2.9-.6.9-1.2zm-1.5.9H62v-1.6h.6c.4 0 .6.1.8.2s.3.3.3.6-.1.5-.2.6-.4.2-.8.2zM64.7 82.8h1.4v3.8h.5v-3.8h1.3v-.5h-3.2M71.9 82.2c-.6 0-1.1.2-1.5.6s-.5.9-.5 1.6c0 .7.2 1.2.5 1.6s.8.6 1.5.6c.6 0 1.1-.2 1.4-.6s.5-.9.5-1.6c0-.7-.2-1.2-.5-1.6s-.8-.6-1.4-.6zm1 3.6c-.2.3-.6.4-1.1.4-.5 0-.8-.1-1.1-.4s-.4-.7-.4-1.3c0-.6.1-1 .4-1.3s.6-.4 1.1-.4c.5 0 .8.1 1.1.4s.4.7.4 1.3c0 .5-.1 1-.4 1.3zM77.5 85.1c0 .4-.1.6-.3.8s-.5.3-.8.3c-.4 0-.7-.1-.9-.3s-.3-.5-.3-.8v-2.8h-.5v2.8c0 .5.1.9.4 1.2s.7.4 1.2.4.9-.1 1.2-.4.4-.7.4-1.2v-2.8h-.5v2.8zM81.9 83.5c0-.4-.1-.7-.4-.9s-.6-.3-1.2-.3h-1.2v4.3h.5v-1.8h.9l1 1.8h.6L81 84.7c.6-.2.9-.6.9-1.2zm-1.6.9h-.7v-1.6h.6c.4 0 .6.1.8.2s.3.3.3.6-.1.5-.2.6-.4.2-.8.2zM86.1 82.8c-.3-.4-.8-.6-1.4-.6-.6 0-1.1.2-1.5.6s-.5.9-.5 1.6c0 .7.2 1.2.5 1.6s.8.6 1.5.6c.6 0 1.1-.2 1.4-.6s.5-.9.5-1.6c0-.6-.2-1.2-.5-1.6zm-.4 3c-.2.3-.6.4-1.1.4-.5 0-.8-.1-1.1-.4s-.4-.7-.4-1.3c0-.6.1-1 .4-1.3s.6-.4 1.1-.4c.5 0 .8.1 1.1.4s.4.7.4 1.3c0 .5-.2 1-.4 1.3z"/></g><path fill="#157854" d="M4 73h88.7v.8H4z"/></symbol><symbol id="logo" viewBox="0 0 338.4 233.1"><g fill="#6F6F6E"><path d="M146.5 222.8c.4-.8.6-1.7.6-2.5s-.1-1.4-.4-1.9c-.3-.5-.7-.9-1.2-1.2-.5-.3-1-.4-1.6-.4-.5 0-1 .1-1.4.2-.4.1-.8.3-1 .4-.3.2-.5.3-.8.6-.3.2-.5.4-.6.5l2.5-8.2h-.8c-.9.2-2.3.3-4.2.3l-.4 1.1h.4c.4 0 .8 0 1 .1.3.1.4.3.4.5 0 .1 0 .3-.1.7l-2.7 8.7c-.3 1-.5 1.8-.5 2.3 0 .9.4 1.7 1.1 2.3.7.7 1.7 1 3.1 1 1 0 1.9-.2 2.8-.6.9-.4 1.7-1 2.4-1.7.5-.6 1-1.4 1.4-2.2zm-2.9 0c-.3 1-.8 1.8-1.4 2.5-.6.7-1.4 1.1-2.3 1.1-.5 0-1-.2-1.2-.5-.3-.3-.4-.7-.4-1.2 0-.3.1-.7.2-1.4.2-.7.4-1.3.7-2 .9-2 2-3 3.3-3 .5 0 1 .2 1.2.6.3.4.4.9.4 1.5s-.2 1.4-.5 2.4zM158.8 217c-.2-.2-.5-.3-.8-.3-.3 0-.5.1-.7.4-.2.2-.3.6-.3 1 0 .3.1.8.4 1.5.3.7.4 1.2.4 1.6 0 .5-.1 1-.4 1.6-.2.5-.5 1.1-.9 1.6-.1.2-.9 1.1-2.3 2.8.2-1 .2-2.2.2-3.7 0-1.8-.2-3.4-.7-4.7-.4-1.3-1.3-2-2.5-2-.6 0-1.2.3-1.9.8s-1.1 1.6-1.3 3.2h1c.1-1.4.5-2.1 1.2-2.1.2 0 .4.1.5.3.2.2.3.4.3.7.1.5.2 1.1.3 1.7.1.6.1 1.2.1 1.8v1.6c0 2.1-.3 3.8-1 4.9-.3.5-.6.9-1.1 1.2-.4.3-.9.5-1.5.5-.3 0-.8-.1-1.5-.3-.3-.1-.6-.2-.8-.3-.2-.1-.5-.1-.7-.1-.4 0-.7.1-1 .3-.3.2-.4.5-.4.9s.2.8.6 1c.4.2.9.3 1.4.3 1.2 0 2.6-.5 4.2-1.4 1.6-.9 3.2-2.1 4.7-3.5 1.5-1.5 2.7-3 3.7-4.7 1-1.6 1.4-3.2 1.4-4.6 0-.5-.1-.9-.2-1.2 0-.4-.2-.7-.4-.8zM191.8 211.6l.4-1.1h-5.9l-8.6 12.6-.9-12.6h-5.9l-.3 1.1h.3c.5 0 1 .1 1.3.3.3.2.4.5.4.9 0 .2-.1.5-.1.7l-3.6 9.4c-.3.7-.6 1.4-1.1 1.9-.5.6-.9.9-1.5.9l-.4 1.1h5.4l.4-1.1c-.7-.1-1.2-.2-1.5-.3-.4-.1-.6-.4-.6-.9 0-.2.1-.6.4-1.2l4.1-10.8.9 14.3h1.6l9.7-14.4-2.9 11.4c-.1.6-.3 1-.5 1.2-.2.2-.4.4-.7.5-.3.1-.8.1-1.4.1l-.4 1.1h7.7l.4-1.1c-.7 0-1.2-.1-1.5-.2-.4-.2-.5-.5-.5-.9 0-.2.1-.6.2-1.1l2.5-9.6c.2-.7.4-1.2.5-1.5.2-.3.4-.5.7-.7.3.1.8 0 1.4 0zM199.6 225.8c-.1 0-.2 0-.2-.1-.1-.1-.1-.2-.1-.3 0-.1.1-.4.2-1l2.3-7.4H199l-.5 1.5c-.1-.3-.2-.6-.3-.8-.1-.3-.3-.5-.6-.7-.3-.2-.7-.3-1.2-.3-1.1 0-2.1.4-3.1 1.2-1 .8-1.7 1.8-2.3 3.1-.6 1.2-.8 2.4-.8 3.5 0 .5.1 1 .2 1.4.2.4.4.8.7 1.1.3.3.7.4 1.2.4.8 0 1.5-.2 2.2-.7.6-.5 1.3-1.1 1.9-1.9 0 .7.1 1.3.4 1.8.2.5.8.8 1.6.8.4 0 .8-.1 1.1-.2.4-.2.7-.4 1.1-.7.4-.3.7-.6 1-1 .3-.4.6-.8.8-1.3h-1.2c-.5 1-1.1 1.6-1.6 1.6zm-2-4.7c-.2.7-.5 1.4-.9 2.1-.4.7-.8 1.2-1.2 1.6-.5.4-.9.6-1.3.6-.6 0-.9-.5-.9-1.5 0-.7.2-1.5.5-2.5.4-1 .8-1.8 1.4-2.5.6-.7 1.2-1.1 1.8-1.1.4 0 .7.1.8.4.1.3.2.6.2 1-.1.6-.2 1.2-.4 1.9zM213.4 217.2c-.2-.4-.6-.5-1.2-.5-.4 0-.9.2-1.3.5-.5.3-.9.7-1.3 1.3-.4.5-.8 1-1.1 1.5-.3.5-.7 1.1-1.1 1.9.5-1.5.7-2.6.7-3.3 0-.4-.1-.8-.3-1.2-.2-.4-.6-.6-1.3-.6-.4 0-.8.1-1.2.3-.5.2-.9.6-1.4 1.1-.5.5-1 1.2-1.4 2.2h1.1c.2-.4.4-.8.7-1.2.3-.4.6-.7 1-.7.1 0 .2 0 .3.1.1.1.1.2.1.3 0 .3-.1.7-.3 1.4l-1.9 6.8h2.9l.1-.5c.3-.9.6-1.8 1-2.7.4-.9.8-1.7 1.2-2.3.4-.7.8-1.2 1.2-1.6.4-.4.7-.6.9-.6.2 0 .4.1.6.4.3.4.7.6 1.1.6.4 0 .8-.2 1.1-.6.3-.4.4-.8.4-1.4-.3-.5-.4-.8-.6-1.2zM223.2 217.5c-.3-.2-.6-.4-1-.6-.4-.1-.8-.2-1.3-.2-1.4 0-2.7.4-3.8 1.1-1.2.8-2.1 1.7-2.7 2.9-.6 1.2-1 2.3-1 3.5 0 1 .3 1.7.9 2.3.6.6 1.5.8 2.6.8 1.3 0 2.4-.3 3.5-1 1-.7 1.8-1.5 2.4-2.3h-1.3c-.4.5-.9 1-1.5 1.4-.6.4-1.3.6-2 .6-.4 0-.7-.1-1.1-.3-.4-.2-.5-.7-.5-1.4s.2-1.5.5-2.6c.4-1.1.8-2 1.5-2.7.6-.8 1.3-1.2 2-1.2.2 0 .5.1.7.2.3.1.4.4.4.8 0 .2 0 .4-.1.6-.1.3-.1.5-.1.6 0 .3.1.6.3.8.2.2.5.3.8.3.5 0 .8-.2 1.1-.5.3-.3.4-.7.4-1.2 0-.3-.1-.6-.2-.9 0-.5-.2-.8-.5-1zM234.5 217.3c-.5-.4-1.3-.6-2.4-.6-1.4 0-2.7.4-3.9 1.1-1.2.7-2.1 1.7-2.8 2.9-.7 1.2-1 2.4-1 3.6 0 1 .3 1.8 1 2.3.7.5 1.5.8 2.5.8 1.4 0 2.6-.4 3.6-1.1 1-.8 1.8-1.5 2.3-2.3h-1.3c-1.1 1.3-2.3 2-3.5 2-.6 0-1-.1-1.3-.4-.3-.3-.4-.7-.4-1.3 0-.3 0-.6.1-.9h.3c1.5-.1 2.8-.4 3.8-.8s1.8-.8 2.3-1.3c.5-.5.9-.9 1.1-1.4.2-.4.3-.8.3-1.1 0-.7-.2-1.2-.7-1.5zm-3.1 3.5c-.8.7-2.1 1.1-3.7 1.4 0-.1.2-.5.4-1 .2-.6.5-1.1.8-1.6.3-.5.7-1 1.2-1.4.5-.4 1-.6 1.6-.6.3 0 .6.1.8.3.2.2.3.5.3.7-.1.8-.5 1.6-1.4 2.2zM240.1 225.3c-.4.4-.7.6-.9.6-.1 0-.2 0-.3-.1-.1-.1-.1-.2-.1-.3 0-.2.1-.6.3-1.3l4.3-14h-.8c-.4.1-.9.2-1.3.2-.5 0-1 .1-1.5.1h-1.3l-.3 1.1c.6 0 1.1 0 1.3.1.2.1.3.3.3.6 0 .2-.1.7-.3 1.3l-3.1 10.1c-.3.9-.4 1.5-.4 1.8 0 .5.2.9.6 1.2.4.3.9.5 1.5.5 1 0 1.8-.4 2.5-1.1.7-.7 1.2-1.5 1.6-2.2H241c-.2.6-.5 1.1-.9 1.4zM252.6 217.3c-.7-.4-1.6-.6-2.6-.6-1.2 0-2.3.3-3.4.9-1 .6-1.9 1.4-2.5 2.3-.6 1-.9 2-.9 3.1 0 .9.2 1.6.6 2.3.4.7 1 1.2 1.7 1.6.7.4 1.6.6 2.5.6 1 0 1.9-.2 2.7-.5.8-.3 1.5-.8 2.1-1.4.6-.6 1.1-1.3 1.4-2.1.3-.8.5-1.6.5-2.4 0-.8-.2-1.5-.5-2.1-.3-.8-.9-1.3-1.6-1.7zm-.9 4.6c-.2.7-.4 1.4-.7 2.1-.3.7-.7 1.3-1.2 1.7-.5.4-1.1.7-1.7.7-.6 0-1-.2-1.3-.7-.3-.4-.5-1-.5-1.7 0-.5.1-1.1.2-1.8.2-.7.4-1.4.7-2.1.3-.7.7-1.3 1.2-1.7.5-.5 1-.7 1.6-.7.6 0 1.1.2 1.4.6.3.4.5 1 .5 1.8 0 .5-.1 1.1-.2 1.8zM268.7 215c.6-1.1 1.3-2 2.2-2.6.9-.7 1.8-1 2.9-1 1.6 0 2.7.7 3.3 2.2.3.8.5 1.7.5 2.8h1.1l1.3-5.7h-1.1c-.3.8-.6 1.4-1 1.7-.8-1.4-2.3-2.1-4.3-2.1-1.4 0-2.7.3-3.9.9-1.2.6-2.3 1.4-3.3 2.5-.9 1-1.7 2.2-2.2 3.5-.5 1.3-.8 2.6-.8 3.8 0 1.1.2 2.2.7 3.2.5 1 1.2 1.8 2.1 2.4 1 .6 2.2.9 3.7.9 1 0 1.9-.1 2.7-.4.8-.2 1.7-.6 2.5-1l1.4.9 1.2-4c.2-.7.5-1.2.7-1.5.2-.3.6-.4 1.1-.4l.4-1.1h-6.7l-.2 1c1.1 0 1.6.4 1.6 1.1 0 .2 0 .4-.1.7l-.1.5c-.3 1-.8 1.7-1.6 2.2-.8.4-1.6.7-2.5.7-.9 0-1.7-.2-2.2-.7-.5-.5-.8-1-1-1.6-.2-.6-.2-1.2-.2-1.8 0-1.1.2-2.2.5-3.5.3-1.3.7-2.5 1.3-3.6zM290.3 217.3c-.5-.4-1.3-.6-2.4-.6-1.4 0-2.7.4-3.9 1.1-1.2.7-2.1 1.7-2.8 2.9-.7 1.2-1 2.4-1 3.6 0 1 .3 1.8 1 2.3.7.5 1.5.8 2.5.8 1.4 0 2.6-.4 3.6-1.1 1-.8 1.8-1.5 2.3-2.3h-1.3c-1.1 1.3-2.3 2-3.5 2-.6 0-1-.1-1.3-.4-.3-.3-.4-.7-.4-1.3 0-.3 0-.6.1-.9h.3c1.5-.1 2.8-.4 3.8-.8s1.8-.8 2.3-1.3c.5-.5.9-.9 1.1-1.4.2-.4.3-.8.3-1.1 0-.7-.2-1.2-.7-1.5zm-3.1 3.5c-.8.7-2.1 1.1-3.7 1.4 0-.1.2-.5.4-1 .2-.6.5-1.1.8-1.6.3-.5.7-1 1.2-1.4.5-.4 1-.6 1.6-.6.3 0 .6.1.8.3.2.2.3.5.3.7-.2.8-.6 1.6-1.4 2.2zM312.1 225.2c-.3.2-.6.4-.8.4-.3 0-.4-.1-.4-.4 0-.2.1-.5.2-1l1.2-3.8c.2-.6.3-.9.3-1.1 0-.2.1-.4.1-.6 0-.3-.1-.6-.2-.9-.2-.3-.4-.6-.7-.8-.3-.2-.8-.3-1.3-.3-.9 0-1.7.2-2.5.7-.8.5-1.5 1.1-2.1 1.8-.6.7-1.2 1.5-1.7 2.3l.3-1.1c.3-.9.4-1.5.4-1.9 0-.6-.2-1.1-.6-1.4-.4-.3-1-.5-1.7-.5-.5 0-1 .1-1.5.3-.5.2-1 .5-1.6 1-.6.5-1.1 1-1.6 1.6-.5.6-1 1.3-1.5 2.1l.4-1.2c.3-.9.4-1.6.4-2.1 0-.4-.1-.7-.3-1-.2-.3-.4-.5-.7-.6-.3-.1-.6-.2-1-.2-1 0-1.8.3-2.5 1s-1.2 1.5-1.5 2.4h1.1c.2-.5.5-.9.7-1.2.2-.3.4-.5.6-.6.2-.1.3-.2.4-.2.1 0 .2 0 .3.1.1.1.1.2.1.3 0 .2-.1.6-.3 1.4l-2.1 7h2.9l.1-.4c.3-.9.6-1.8 1.1-2.7.4-.9.9-1.8 1.5-2.5.5-.8 1.1-1.4 1.7-1.9.6-.5 1.2-.7 1.7-.7.3 0 .5.1.7.3.1.2.2.4.2.7s-.1.7-.2 1.2l-1.9 6.1h2.9l.2-.6c.4-1.2.9-2.4 1.5-3.6.7-1.2 1.4-2.2 2.2-2.9.8-.8 1.5-1.1 2.2-1.1.3 0 .5.1.7.3.2.2.3.4.3.7 0 .2-.1.7-.3 1.4l-.9 3c-.2.6-.3 1-.3 1.3 0 .4.2.8.5 1.2.3.3.8.5 1.4.5 1.8 0 3.2-1.1 4.5-3.4h-1.2c-.7.9-1.1 1.3-1.4 1.6zM324.2 225.8c-.1 0-.2 0-.2-.1-.1-.1-.1-.2-.1-.3 0-.1.1-.4.2-1l2.3-7.4h-2.7l-.4 1.5c-.1-.3-.2-.6-.3-.8-.1-.3-.3-.5-.6-.7-.3-.2-.7-.3-1.2-.3-1.1 0-2.1.4-3.1 1.2-1 .8-1.7 1.8-2.3 3.1-.6 1.2-.8 2.4-.8 3.5 0 .5.1 1 .2 1.4.2.4.4.8.7 1.1.3.3.7.4 1.2.4.8 0 1.5-.2 2.2-.7.6-.5 1.3-1.1 1.9-1.9 0 .7.1 1.3.4 1.8.2.5.8.8 1.6.8.4 0 .8-.1 1.1-.2.4-.2.7-.4 1.1-.7.4-.3.7-.6 1-1 .3-.4.6-.8.8-1.3H326c-.7 1-1.2 1.6-1.8 1.6zm-1.9-4.7c-.2.7-.5 1.4-.9 2.1-.4.7-.8 1.2-1.2 1.6-.4.4-.9.6-1.3.6-.6 0-.9-.5-.9-1.5 0-.7.2-1.5.5-2.5.4-1 .8-1.8 1.4-2.5.6-.7 1.2-1.1 1.8-1.1.4 0 .7.1.8.4.1.3.2.6.2 1-.1.6-.2 1.2-.4 1.9zM338 218.1c-.1-.2-.3-.4-.6-.7-.3-.2-.7-.4-1.2-.5-.5-.1-1.1-.2-1.9-.2-1.2 0-2.1.2-2.8.5-.7.3-1.2.7-1.4 1.2-.3.4-.4.9-.4 1.2 0 .4.1.8.3 1.2.2.4.5.8 1 1.2.4.4 1 .9 1.6 1.5.4.3.6.6.7.8.1.2.2.4.2.7 0 .4-.2.8-.5 1.1-.3.3-.8.4-1.3.4-.6 0-1-.1-1.2-.4-.2-.3-.3-.6-.4-1.1-.1-1.1-.6-1.6-1.4-1.6-.4 0-.7.1-1 .4-.3.3-.4.6-.4 1 0 .6.3 1.1 1 1.7.6.6 1.8.9 3.4.9 1.1 0 2-.1 2.7-.5.7-.3 1.2-.7 1.5-1.2.3-.5.5-1 .5-1.5 0-.7-.2-1.2-.5-1.7-.4-.4-.9-1-1.7-1.6-.4-.4-.7-.6-.9-.8-.2-.2-.4-.4-.5-.6-.1-.2-.2-.5-.2-.7 0-.4.2-.6.5-.9.3-.2.7-.3 1.1-.3.5 0 .8.1 1 .2.2.2.3.4.4.6.1.4.3.7.3.9.1.2.2.4.4.5.2.1.4.2.7.2.4 0 .7-.1.9-.4.2-.3.3-.5.3-.9-.1-.2-.1-.4-.2-.6z"/></g><g fill="#6F6F6E"><path d="M170.5 52.6c0 1.9.1 8.7.1 16.1v35.7c0 9.3 10.2 8.9 10.2 8.9h13.7v-3.9h-1.8c-3.3 0-5.7-.5-7.2-1.4-1.4-.9-2.3-2.2-2.6-3.9-.3-1.7-.4-8.9-.4-16.8V75.8c0-6.1.5-11 1.4-14.5 1-3.5 3.1-6.9 6.4-10.2 3.4-3.3 6.2-4.9 8.6-4.9 2 0 3.5 1.4 4.5 4.2 1.5 4.1 3.6 6.2 6.4 6.2 1.6 0 2.9-.6 4-1.8 1.1-1.2 1.6-2.6 1.6-4.2 0-2.4-1.1-4.7-3.2-7s-5-3.4-8.7-3.4c-4.1 0-8.2 1.7-12.5 5-4.3 3.4-7.3 6.7-9.2 11.6-.2-7.3-.2-14.2-.2-14.2s-15.2.1-20.6.1v4.1h1.8c6.5.1 7.7 3.2 7.7 5.8zM251.3 125.1c-4.1 0-8.2 1.7-12.5 5-4.3 3.3-7.3 6.7-9.2 11.6-.2-7.3-.2-14.2-.2-14.2s-15.2.1-20.6.1v4.1h1.8c6.5 0 7.6 3 7.7 5.7 0 1.9.1 8.7.1 16.1v35.7c0 9.3 10.2 8.9 10.2 8.9h13.7v-3.9h-1.8c-3.4 0-5.7-.5-7.2-1.4-1.4-.9-2.3-2.2-2.5-3.9-.3-1.7-.4-8.9-.4-16.8V160.5c0-6.1.5-11 1.4-14.5.9-3.5 3.1-6.9 6.4-10.2 3.3-3.3 6.2-4.9 8.6-4.9 2 0 3.5 1.4 4.5 4.2 1.5 4.1 3.6 6.2 6.4 6.2 1.6 0 2.9-.6 4-1.8 1.1-1.2 1.6-2.6 1.6-4.2 0-2.4-1.1-4.7-3.2-7-2.2-2.1-5.1-3.2-8.8-3.2zM327.8 135.7c-7-7.1-15.7-10.6-26-10.6s-18.9 3.5-25.9 10.6-10.5 15.8-10.5 26.3c0 11.3 3.6 20.4 10.7 27.1 7.1 6.7 15.7 10.1 25.8 10.1 10.1 0 18.7-3.3 25.8-9.9 7.1-6.6 10.7-15.7 10.7-27.2 0-10.5-3.5-19.3-10.6-26.4zm-9.1 52.3c-3.9 4.9-9.5 7.3-16.8 7.3-7.1 0-12.7-2.4-16.7-7.3s-5.9-13.4-5.9-25.6c0-12.1 1.9-20.7 5.8-25.8 3.9-5.1 9.5-7.7 16.8-7.7 7.4 0 13 2.6 16.8 7.7 3.8 5.1 5.8 13.7 5.8 25.8 0 12.2-2 20.7-5.8 25.6zM235.7 71.3v32.9c0 9.3 10.2 8.9 10.2 8.9h13.7v-3.9h-1.8c-3.3 0-5.7-.5-7.2-1.4-1.4-.9-2.3-2.2-2.6-3.9-.3-1.7-.4-8.9-.4-16.8V72.5 46.8h20.7V43h-20.7V30h-4.5l-1.7 6.3-.9 2.7c-.6 1.5-3.6 4-14.7 4v3.8h9.9v24.5z"/><path d="M198.7 192.7c-1.4-.9-2.3-2.2-2.6-3.9-.3-1.7-.4-8.9-.4-16.8v-.3l-.1-6.5v-37.4h-12s.1 16 .1 23.5v15.5c0 5.9-.7 10.4-2.1 13.5-1.4 3.2-4.1 6.1-8 9-3.9 2.8-8 4.2-12.3 4.2-3 0-5.7-.8-8-2.4-2.3-1.6-3.7-3.4-4.3-5.6-.6-2.1-.8-5.5-.8-10.2v-49.7h18.3V122c-3.7-.4-6.4-1.3-8.2-2.7-1.8-1.4-3.3-3.4-4.4-5.9l-4.8-11.1L105.7 0h-3L72 73.4c-1.2 2.9-4.7 11.4-7.7 18.5-2.3-.2-4.7-.3-7.1-.3-16.3 0-29.9 4.9-40.8 14.8C5.5 116.3 0 129.3 0 145.7c0 16.7 5.4 30.2 16.1 40.3 10.8 10.1 24.5 15.2 41.3 15.2 17.2 0 31.1-5.1 41.7-15.2 10.6-10.1 15.9-23.4 15.9-39.8 0-16.9-5.5-30.2-16.6-40-8.4-7.4-18.4-12-30-13.8 2.8-7.1 5.5-13.8 7-17.5l2.8-6.7 20.1-48.1 20.1 48.1 16 38.1c2.4 5.7 3.6 9.1 3.6 10.2 0 2.2-.9 3.7-2.7 4.5-1.1.5-2.8.8-5 .9h-5.4v3.8c4 0 6.7.4 8.2 1.3 1.5.8 2.4 2.1 2.6 3.9.3 1.8.4 6.6.4 14.5v29.3c0 6.1.7 10.6 2 13.6s3.7 5.6 7.2 7.7c3.5 2.1 7.6 3.1 12.1 3.1 5.3 0 10.1-1.3 14.5-4s8.3-6.7 11.7-12v5.8c0 9.3 10.2 8.9 10.2 8.9h13.7v-3.9h-1.8c-3.2.2-5.6-.3-7-1.2zM86.9 108.6c6.8 8.8 10.2 21.3 10.2 37.8 0 16.9-3.5 29.6-10.4 38.1s-16.3 12.8-28.2 12.8c-13.6 0-23.7-4.3-30.5-12.8-6.8-8.5-10.2-21.3-10.2-38.3 0-16.7 3.4-29.4 10.2-37.9 6.8-8.5 16.5-12.8 29.3-12.8 1.9 0 3.7.1 5.4.3-1.6 3.9-2.8 6.8-2.9 7.1-3.2 8.3-6 13.7-8.3 16.2-2.3 2.6-5.8 4.2-10.4 4.9v3.6h4.1s8.7 1.3 13-9.2c.6-1.5 4.6-11.6 8.7-22 8.3 1.7 15 5.7 20 12.2z"/></g><path d="M108 64.2l-9.9-3.3-9.9 3.3-5.2 8.3 1.8 9.4 8 6.1h10.5l8-6.1 1.8-9.4-5.1-8.3zm-2.1 15.1L101 83h-6.4l-4.9-3.7-1.1-5.7 3.2-5 6-2 6 2 3.2 5-1.1 5.7z" fill="#008D36"/></symbol><symbol id="logo_footer" viewBox="0 0 339.8 103.9"><style>.st0{fill:#6F6F6E;} .st1{fill:#008D36;}</style><path class="st0" d="M128.9 90.4c0 .9-.2 1.8-.6 2.7-.4.9-1 1.7-1.7 2.4s-1.6 1.3-2.5 1.8c-.9.4-1.9.6-2.9.6-1.4 0-2.5-.3-3.2-1-.8-.7-1.1-1.5-1.1-2.4 0-.6.2-1.4.5-2.5l2.8-9.1c.1-.4.2-.6.2-.7 0-.3-.1-.5-.4-.6-.3-.1-.6-.1-1.1-.1h-.4l.4-1.2c2 0 3.5-.1 4.4-.3h.9l-2.6 8.6c.1-.1.3-.3.6-.5s.6-.5.8-.6c.3-.2.6-.3 1.1-.5.5-.1 1-.2 1.5-.2.6 0 1.2.1 1.7.4.5.3.9.7 1.3 1.3.1.4.3 1.1.3 1.9m-3.2 0c0-.6-.1-1.1-.4-1.5-.3-.4-.7-.6-1.3-.6-1.4 0-2.6 1-3.5 3.1-.3.7-.5 1.4-.7 2.1-.2.7-.2 1.2-.2 1.5 0 .5.2.9.5 1.3.3.3.7.5 1.3.5.9 0 1.7-.4 2.4-1.1.7-.7 1.2-1.6 1.5-2.6.3-1 .4-1.9.4-2.7"/><path class="st0" d="M142 89.1c0 1.5-.5 3.1-1.5 4.8-1 1.7-2.3 3.4-3.9 4.9-1.6 1.5-3.2 2.8-4.9 3.7-1.7.9-3.2 1.4-4.5 1.4-.6 0-1.1-.1-1.5-.4-.4-.2-.6-.6-.6-1.1 0-.4.1-.7.4-.9.3-.2.6-.4 1-.4.3 0 .6 0 .8.1.2.1.5.2.8.3.7.2 1.2.4 1.6.4.6 0 1.1-.2 1.6-.5.5-.4.8-.8 1.1-1.3.7-1.2 1-3 1-5.2 0-.5 0-1.1-.1-1.7 0-.6-.1-1.2-.2-1.8-.1-.6-.2-1.2-.3-1.7-.1-.3-.2-.5-.4-.7-.2-.2-.4-.3-.6-.3-.7 0-1.1.8-1.2 2.3h-1.1c.2-1.7.6-2.8 1.3-3.4.7-.5 1.4-.8 2-.8 1.3 0 2.2.7 2.6 2.1.5 1.4.7 3.1.7 5 0 1.6-.1 2.9-.3 3.9 1.5-1.8 2.3-2.8 2.5-2.9.4-.6.7-1.1 1-1.7.2-.5.4-1.1.4-1.6 0-.4-.1-1-.4-1.7-.3-.7-.4-1.3-.4-1.6 0-.4.1-.7.3-1 .2-.3.5-.4.8-.4.3 0 .6.1.8.3.3.2.5.5.6.8.6.1.6.6.6 1.1M176.3 80.2l-.4 1.2c-.6 0-1.1.1-1.5.2-.3.1-.6.4-.8.7-.2.3-.4.9-.6 1.6L170.5 94c-.1.5-.2.9-.2 1.2 0 .5.2.8.6.9.4.2.9.2 1.6.2l-.4 1.2H164l.4-1.2c.6 0 1.1 0 1.4-.1.3-.1.6-.3.7-.5.2-.3.3-.7.5-1.3l3-12-10.2 15.1h-1.7l-1-15.1-4.3 11.3c-.2.6-.4 1.1-.4 1.3 0 .5.2.8.6 1 .4.1.9.3 1.6.3l-.4 1.2h-5.7l.4-1.2c.6-.1 1.1-.4 1.6-1s.9-1.3 1.2-2l3.8-9.9c.1-.3.2-.5.2-.8 0-.4-.2-.7-.5-.9-.3-.2-.7-.3-1.3-.3h-.3l.3-1.2h6.3l.9 13.2 9-13.2h6.2zM187.1 94.4c-.2.5-.5 1-.8 1.4-.3.4-.6.8-1 1.1-.4.3-.8.6-1.1.7-.4.2-.8.2-1.2.2-.9 0-1.5-.3-1.7-.8-.3-.5-.4-1.2-.4-1.9-.7.8-1.4 1.5-2 2-.7.5-1.4.8-2.3.8-.5 0-.9-.1-1.3-.4-.3-.3-.6-.7-.7-1.1-.2-.5-.2-1-.2-1.5 0-1.2.3-2.4.9-3.6.6-1.3 1.4-2.4 2.4-3.2 1-.9 2.1-1.3 3.3-1.3.5 0 1 .1 1.3.3.3.2.5.5.6.7l.3.9.5-1.6h2.8l-2.4 7.8c-.2.6-.3.9-.3 1 0 .1 0 .2.1.3.1.1.2.1.3.1.6 0 1.1-.6 1.8-1.8h1.1zm-4.8-5.1c0-.4-.1-.8-.2-1.1-.2-.3-.4-.4-.9-.4-.6 0-1.3.4-1.9 1.1-.6.7-1.1 1.6-1.5 2.7-.4 1-.6 1.9-.6 2.6 0 1 .3 1.5 1 1.5.5 0 .9-.2 1.4-.6.5-.4.9-1 1.3-1.7s.7-1.4 1-2.2c.3-.6.4-1.3.4-1.9M199 88.3c0 .5-.1 1-.4 1.4-.3.4-.7.6-1.1.6-.4 0-.8-.2-1.1-.7-.2-.3-.4-.4-.6-.4-.2 0-.5.2-.9.6-.4.4-.8 1-1.2 1.7-.4.7-.8 1.5-1.2 2.5-.4.9-.8 1.9-1.1 2.8l-.2.5h-3l2-7.2c.2-.7.3-1.2.3-1.4 0-.1 0-.2-.1-.3-.1-.1-.2-.1-.3-.1-.3 0-.7.2-1 .7-.3.5-.6.9-.8 1.3H187c.5-1 1-1.8 1.5-2.3.5-.5 1-.9 1.5-1.1.5-.2.9-.3 1.3-.3.7 0 1.1.2 1.3.6.2.4.3.8.3 1.3 0 .7-.2 1.9-.7 3.5.5-.8.9-1.5 1.2-2 .3-.5.7-1 1.1-1.6.4-.5.9-1 1.4-1.3.5-.3 1-.5 1.4-.5.7 0 1.1.2 1.3.6.3.4.4.8.4 1.1M209.8 89.3c0 .5-.2 1-.5 1.3-.3.3-.7.5-1.2.5-.4 0-.7-.1-.9-.3-.2-.2-.3-.5-.3-.8 0-.2 0-.4.1-.7.1-.2.1-.4.1-.6 0-.4-.1-.7-.4-.8-.3-.1-.5-.2-.8-.2-.7 0-1.4.4-2.1 1.2-.6.8-1.2 1.8-1.5 2.9-.4 1.1-.6 2-.6 2.7 0 .8.2 1.3.6 1.5.4.2.8.3 1.1.3.8 0 1.5-.2 2.1-.6.6-.4 1.2-.9 1.6-1.4h1.4c-.6.9-1.5 1.7-2.5 2.5-1.1.7-2.3 1.1-3.7 1.1-1.2 0-2.1-.3-2.8-.9-.6-.6-1-1.4-1-2.4 0-1.2.3-2.4 1-3.7.7-1.3 1.6-2.3 2.8-3.1 1.2-.8 2.5-1.2 4-1.2.5 0 1 .1 1.4.2.4.1.8.3 1 .6.3.3.5.5.7.9.3.4.4.7.4 1M221.6 88.8c0 .3-.1.8-.3 1.2-.2.5-.6.9-1.2 1.5-.6.5-1.4 1-2.4 1.4-1.1.4-2.4.7-4 .8h-.3c-.1.3-.1.7-.1.9 0 .6.2 1.1.5 1.4.3.3.7.4 1.3.4 1.3 0 2.5-.7 3.7-2.1h1.4c-.5.8-1.3 1.6-2.4 2.4-1.1.8-2.4 1.2-3.8 1.2-1 0-1.9-.3-2.6-.8-.7-.6-1.1-1.4-1.1-2.4 0-1.3.4-2.6 1.1-3.8.7-1.2 1.7-2.2 3-3 1.3-.8 2.6-1.2 4.1-1.2 1.2 0 2 .2 2.5.6.3.4.6.9.6 1.5m-2.7-.1c0-.3-.1-.5-.3-.8-.2-.2-.5-.4-.8-.4-.6 0-1.1.2-1.6.6-.5.4-.9.9-1.3 1.5-.3.6-.6 1.1-.8 1.7-.2.6-.4.9-.4 1.1 1.7-.3 3-.8 3.9-1.5.9-.6 1.3-1.3 1.3-2.2M230.3 79.9l-4.5 14.7c-.2.7-.3 1.2-.3 1.4 0 .1 0 .3.1.3.1.1.2.1.3.1.2 0 .5-.2.9-.6.4-.4.7-.9.9-1.4h1.2c-.4.8-1 1.6-1.7 2.3-.7.8-1.6 1.1-2.6 1.1-.6 0-1.2-.2-1.5-.5-.4-.4-.6-.8-.6-1.3 0-.4.1-1 .4-1.9l3.3-10.7c.2-.7.3-1.2.3-1.4 0-.3-.1-.5-.4-.6-.2-.1-.7-.1-1.4-.1l.3-1.2h1.4c.6 0 1.1 0 1.6-.1.5 0 .9-.1 1.4-.2h.9zM242.2 91.2c0 .9-.2 1.7-.5 2.5s-.8 1.5-1.5 2.2c-.6.6-1.4 1.1-2.2 1.5-.9.4-1.8.5-2.8.5-1 0-1.9-.2-2.6-.6-.8-.4-1.3-.9-1.8-1.6-.4-.7-.6-1.5-.6-2.4 0-1.1.3-2.2.9-3.2.6-1 1.5-1.8 2.6-2.4 1.1-.6 2.3-.9 3.5-.9 1 0 2 .2 2.7.6.8.4 1.3 1 1.7 1.7.4.5.6 1.3.6 2.1m-3.1-.9c0-.8-.2-1.4-.5-1.9s-.8-.7-1.5-.7c-.6 0-1.2.2-1.7.7-.5.5-.9 1.1-1.3 1.8-.3.7-.6 1.4-.8 2.2-.2.7-.3 1.4-.3 1.9 0 .7.2 1.3.5 1.8s.8.7 1.4.7c.7 0 1.3-.2 1.8-.7.5-.5.9-1.1 1.3-1.8.3-.7.6-1.5.7-2.2.4-.7.4-1.3.4-1.8M268.6 90l-.4 1.2c-.6 0-1 .2-1.2.4-.2.3-.5.8-.7 1.6l-1.3 4.2-1.5-1c-.9.4-1.8.8-2.7 1-.8.2-1.8.4-2.9.4-1.5 0-2.8-.3-3.8-.9-1-.6-1.8-1.5-2.2-2.5-.5-1-.7-2.1-.7-3.3 0-1.4.3-2.7.8-4 .6-1.3 1.3-2.6 2.3-3.6 1-1.1 2.1-1.9 3.4-2.6 1.3-.6 2.7-.9 4.1-.9 2.1 0 3.6.7 4.5 2.2.4-.4.8-1 1.1-1.8h1.2l-1.3 6h-1.2c0-1.1-.2-2.1-.5-2.9-.6-1.5-1.8-2.3-3.4-2.3-1.1 0-2.1.4-3.1 1.1-.9.7-1.7 1.6-2.3 2.8-.6 1.1-1.1 2.4-1.5 3.7-.3 1.3-.5 2.5-.5 3.7 0 .6.1 1.2.2 1.8.2.6.5 1.2 1 1.7s1.3.7 2.3.7c.9 0 1.8-.2 2.6-.7.8-.5 1.4-1.2 1.7-2.3l.1-.5c.1-.3.1-.5.1-.7 0-.8-.6-1.2-1.7-1.2l.4-1.2h7.1zM280.2 88.8c0 .3-.1.8-.3 1.2-.2.5-.6.9-1.2 1.5-.6.5-1.4 1-2.4 1.4-1.1.4-2.4.7-4 .8h-.3c-.1.3-.1.7-.1.9 0 .6.2 1.1.5 1.4.3.3.7.4 1.3.4 1.3 0 2.5-.7 3.7-2.1h1.4c-.5.8-1.3 1.6-2.4 2.4-1.1.8-2.4 1.2-3.8 1.2-1 0-1.9-.3-2.6-.8-.7-.6-1.1-1.4-1.1-2.4 0-1.3.4-2.6 1.1-3.8.7-1.2 1.7-2.2 3-3 1.3-.8 2.6-1.2 4.1-1.2 1.2 0 2 .2 2.5.6.4.4.6.9.6 1.5m-2.7-.1c0-.3-.1-.5-.3-.8-.2-.2-.5-.4-.8-.4-.6 0-1.1.2-1.6.6-.5.4-.9.9-1.3 1.5-.3.6-.6 1.1-.8 1.7-.2.6-.4.9-.4 1.1 1.7-.3 3-.8 3.9-1.5.9-.6 1.3-1.3 1.3-2.2M304.8 94.1c-1.3 2.4-2.9 3.6-4.7 3.6-.6 0-1.2-.2-1.5-.5-.4-.4-.5-.8-.5-1.2 0-.3.1-.8.3-1.4l1-3.2c.2-.7.3-1.2.3-1.5 0-.3-.1-.5-.3-.7-.2-.2-.4-.3-.7-.3-.7 0-1.5.4-2.3 1.2-.8.8-1.6 1.8-2.3 3.1-.7 1.3-1.2 2.5-1.6 3.8l-.2.6h-3l2-6.4c.2-.5.2-.9.2-1.2 0-.3-.1-.5-.2-.7-.1-.2-.4-.3-.7-.3-.6 0-1.2.3-1.8.8-.6.5-1.2 1.2-1.8 2-.6.8-1.1 1.7-1.5 2.7-.5 1-.8 1.9-1.1 2.8l-.1.4h-3l2.2-7.3c.2-.8.4-1.3.4-1.5 0-.1 0-.2-.1-.3-.1-.1-.2-.1-.3-.1-.1 0-.3.1-.5.2s-.4.3-.6.6c-.2.3-.5.7-.7 1.2h-1.1c.4-.9.9-1.7 1.6-2.5.7-.7 1.6-1.1 2.6-1.1.3 0 .7.1 1 .2.3.1.6.3.8.6.2.3.3.6.3 1.1 0 .5-.1 1.2-.4 2.2l-.4 1.2c.5-.8 1-1.6 1.5-2.2.5-.7 1.1-1.2 1.7-1.7.6-.5 1.2-.8 1.7-1 .5-.2 1.1-.3 1.6-.3.7 0 1.3.2 1.7.5.4.4.7.9.7 1.5 0 .4-.1 1.1-.4 2l-.3 1.1c.5-.9 1.1-1.7 1.7-2.5.7-.8 1.4-1.4 2.2-1.9.8-.5 1.7-.8 2.6-.8.6 0 1 .1 1.4.3.4.2.6.5.8.8.2.3.2.6.2.9 0 .3 0 .5-.1.7 0 .2-.2.6-.3 1.2l-1.2 4c-.2.5-.2.8-.2 1 0 .3.1.4.4.4.2 0 .5-.1.9-.4.4-.3.7-.7 1.2-1.5h.9zM318.2 94.4c-.2.5-.5 1-.8 1.4-.3.4-.6.8-1 1.1-.4.3-.8.6-1.1.7-.4.2-.8.2-1.2.2-.9 0-1.5-.3-1.7-.8-.3-.5-.4-1.2-.4-1.9-.7.8-1.4 1.5-2 2-.7.5-1.4.8-2.3.8-.5 0-.9-.1-1.3-.4-.3-.3-.6-.7-.7-1.1-.2-.5-.2-1-.2-1.5 0-1.2.3-2.4.9-3.6.6-1.3 1.4-2.4 2.4-3.2 1-.9 2.1-1.3 3.3-1.3.5 0 1 .1 1.3.3.3.2.5.5.6.7l.3.9.5-1.6h2.8l-2.4 7.8c-.2.6-.3.9-.3 1 0 .1 0 .2.1.3.1.1.2.1.2.1.6 0 1.1-.6 1.8-1.8h1.2zm-4.8-5.1c0-.4-.1-.8-.2-1.1-.2-.3-.4-.4-.9-.4-.6 0-1.3.4-1.9 1.1-.6.7-1.1 1.6-1.5 2.7-.4 1-.6 1.9-.6 2.6 0 1 .3 1.5 1 1.5.5 0 .9-.2 1.4-.6.5-.4.9-1 1.3-1.7s.7-1.4 1-2.2c.3-.6.4-1.3.4-1.9M329.8 88.8c0 .3-.1.7-.4.9-.2.3-.6.4-1 .4-.3 0-.5-.1-.7-.2-.2-.1-.3-.3-.4-.5-.1-.2-.2-.5-.4-.9-.1-.3-.2-.5-.4-.7-.2-.2-.5-.2-1-.2-.4 0-.8.1-1.2.3-.4.2-.5.5-.5.9 0 .3.1.5.2.7.1.2.3.4.5.7.2.2.5.5 1 .9.8.7 1.4 1.3 1.8 1.7.4.5.6 1 .6 1.7 0 .6-.2 1.1-.5 1.6s-.9.9-1.6 1.2c-.8.3-1.7.5-2.9.5-1.7 0-2.9-.3-3.5-.9-.7-.6-1-1.2-1-1.8 0-.4.1-.7.4-1 .3-.3.6-.4 1-.4.9 0 1.4.6 1.5 1.7.1.5.2.9.4 1.1.2.3.6.4 1.3.4.6 0 1-.1 1.4-.4.4-.3.5-.7.5-1.1 0-.2-.1-.5-.2-.7-.1-.2-.4-.5-.8-.8-.7-.6-1.3-1.1-1.7-1.5-.4-.4-.8-.9-1-1.3-.2-.4-.3-.8-.3-1.3 0-.4.1-.8.4-1.3.3-.5.8-.9 1.5-1.2.7-.4 1.7-.5 3-.5.8 0 1.4.1 1.9.2s.9.3 1.2.5c.3.2.5.4.6.7.2.1.3.4.3.6M91.8 24.3c-2.2 0-4.5.9-6.9 2.8-2.3 1.8-4 3.7-5.1 6.4-.1-4-.1-7.8-.1-7.8s-8.3 0-11.3.1v2.3h1c3.5 0 4.2 1.7 4.2 3.1 0 1 .1 4.8.1 8.8v19.6c0 5.1 5.6 4.9 5.6 4.9h7.5v-2.1h-1c-1.8 0-3.1-.3-3.9-.8-.8-.5-1.2-1.2-1.4-2.1-.2-.9-.2-4.9-.2-9.2v-6.4c0-3.4.3-6 .8-7.9.5-1.9 1.7-3.8 3.5-5.6 1.8-1.8 3.4-2.7 4.7-2.7 1.1 0 1.9.8 2.5 2.3.8 2.3 2 3.4 3.5 3.4.9 0 1.6-.3 2.2-1 .6-.6.9-1.4.9-2.3 0-1.3-.6-2.6-1.7-3.9-1.3-1.3-2.9-1.9-4.9-1.9M292.1 24.3c-2.2 0-4.5.9-6.9 2.8-2.3 1.8-4 3.7-5.1 6.4-.1-4-.1-7.8-.1-7.8s-8.3 0-11.3.1v2.3h1c3.5 0 4.2 1.7 4.2 3.1 0 1 .1 4.8.1 8.8v19.6c0 5.1 5.6 4.9 5.6 4.9h7.5v-2.1h-1c-1.8 0-3.1-.3-3.9-.8-.8-.5-1.2-1.2-1.4-2.1-.2-.9-.2-4.9-.2-9.2v-6.4c0-3.4.3-6 .8-7.9.5-1.9 1.7-3.8 3.5-5.6 1.8-1.8 3.4-2.7 4.7-2.7 1.1 0 1.9.8 2.5 2.3.8 2.3 2 3.4 3.5 3.4.9 0 1.6-.3 2.2-1 .6-.6.9-1.4.9-2.3 0-1.3-.6-2.6-1.7-3.9-1.3-1.3-2.9-1.9-4.9-1.9M61.7 56.2l-2.8-6.5L38.1.3h-1.8L18.2 43.4c-1.3 3.1-7 16.9-7.2 17.3-1.9 4.9-3.5 8-4.9 9.5-1.3 1.5-3.4 2.5-6.1 2.9v2.1h2.4s5.1.8 7.6-5.4c.7-1.6 7.8-19.8 10.2-25.6l1.6-3.9L33.6 12l11.8 28.3 4.8 11.5c1.4 3.3 2.1 5.3 2.1 6 0 1.3-.5 2.2-1.6 2.6-1.1.4-3.1.7-6.1.7v2.1H69v-2.1c-2.1-.2-3.8-.7-4.8-1.6-1-.7-1.8-1.8-2.5-3.3M209.7 8.6C203.3 2.9 195.2 0 185.5 0c-9.6 0-17.6 2.9-24 8.7-6.4 5.8-9.6 13.5-9.6 23.1 0 9.8 3.2 17.8 9.5 23.7 6.3 6 14.4 8.9 24.3 8.9 10.1 0 18.3-3 24.5-8.9 6.2-6 9.3-13.8 9.3-23.4 0-9.9-3.3-17.7-9.8-23.5m-6.8 46.1c-4.1 5-9.6 7.5-16.6 7.5-8 0-14-2.5-18-7.5s-6-12.5-6-22.5c0-9.8 2-17.3 6-22.3s9.7-7.5 17.2-7.5c7.6 0 13.4 2.6 17.4 7.7 4 5.2 6 12.6 6 22.2.1 9.9-2 17.4-6 22.4M261.6 50.4V25.8H255v21.4c0 3.2-.4 5.7-1.2 7.4-.8 1.7-2.2 3.4-4.4 4.9-2.1 1.5-4.4 2.3-6.8 2.3-1.7 0-3.1-.4-4.4-1.3-1.3-.9-2-1.9-2.3-3-.3-1.2-.5-3-.5-5.6V25.8h-12.7v2.1c2.2 0 3.7.2 4.5.7.8.5 1.3 1.2 1.4 2.1.2 1 .2 3.6.2 8v12.8c0 3.3.4 5.8 1.1 7.5.7 1.7 2 3.1 4 4.2 1.9 1.1 4.1 1.7 6.7 1.7 2.9 0 5.6-.7 8-2.2 2.4-1.5 4.5-3.7 6.4-6.6.1 4.1 6.6-1.6 6.6-5.7M334 30.1c-3.8-3.9-8.6-5.8-14.3-5.8-5.6 0-10.4 1.9-14.2 5.8-3.8 3.9-5.8 8.7-5.8 14.4 0 6.2 1.9 11.2 5.8 14.8 3.9 3.7 8.6 5.5 14.1 5.5s10.2-1.8 14.2-5.4c3.9-3.6 5.9-8.6 5.9-14.9.1-5.7-1.8-10.5-5.7-14.4m-5 28.6c-2.1 2.7-5.2 4-9.2 4-3.9 0-7-1.3-9.1-4-2.2-2.7-3.3-7.3-3.3-14 0-6.6 1.1-11.4 3.2-14.2 2.1-2.8 5.2-4.2 9.2-4.2 4 0 7.1 1.4 9.2 4.2 2.1 2.8 3.2 7.5 3.2 14.1 0 6.8-1.1 11.5-3.2 14.1M107.1 48h6.6V27.8H125v-2.1h-11.3v-7.1h-2.5l-.9 3.5s-.2.7-.5 1.5-1.9 2.2-8.1 2.2v2.1h5.4V48z"/><path class="st0" d="M115.3 61.3c-.8-.5-1.2-1.2-1.4-2.1-.2-.9-.2-4.9-.2-9.2v-6.4-2.4h-6.6v18.1c0 5.1 5.6 4.9 5.6 4.9h7.5v-2.1h-1c-1.8 0-3.1-.3-3.9-.8M263.3 61.3c-.8-.5-1.2-1.2-1.4-2.1-.2-.9-.2-4.9-.2-9.2v-.2l-.1-6.5c0-.8-1.2-1.3-1.2-2h-5.3v18c0 5.1 5.6 4.9 5.6 4.9h7.5v-2.1h-1c-1.8 0-3.2-.3-3.9-.8"/><path class="st1" d="M39.5 34.9l-5.9-2-5.9 2-3.1 4.9 1.1 5.6 4.8 3.7h6.3l4.8-3.7 1.1-5.6-3.2-4.9zm-1.3 9l-2.9 2.2h-3.8l-2.9-2.2-.7-3.4 1.9-3 3.6-1.2 3.6 1.2 1.9 3-.7 3.4z"/></symbol></svg>