<?xml version="1.0" encoding="utf-8"?>
<!-- Generator: Adobe Illustrator 19.1.0, SVG Export Plug-In . SVG Version: 6.00 Build 0)  -->
<svg version="1.1" id="Layer_1" xmlns="http://www.w3.org/2000/svg" xmlns:xlink="http://www.w3.org/1999/xlink" x="0px" y="0px"
	 viewBox="0 0 96.6 96.6" style="enable-background:new 0 0 96.6 96.6;" xml:space="preserve">
<circle style="fill:#FFFFFF;" cx="48.3" cy="48.3" r="48.3"/>
<g>
	<g>
		<path style="fill:#157854;" d="M10.8,23.4c-1,0.6-1.8,1.5-2.4,2.6c-0.5,1.1-0.8,2.4-0.8,3.8c0,2.3,0.6,4.1,1.7,5.4
			c1.1,1.3,2.7,1.9,4.7,1.9c1.4,0,2.6-0.2,3.5-0.5v-0.9c-1,0.3-2.1,0.5-3.3,0.5c-1.8,0-3.2-0.6-4.1-1.7s-1.5-2.7-1.5-4.7
			c0-2,0.5-3.5,1.5-4.7c1-1.1,2.4-1.7,4.2-1.7c1.1,0,2.2,0.3,3.3,0.8l0.4-0.9c-1.1-0.5-2.3-0.8-3.7-0.8C13,22.5,11.8,22.8,10.8,23.4
			z"/>
		<path style="fill:#157854;" d="M31.3,24.4c-1.1-1.3-2.7-2-4.7-2c-2,0-3.5,0.7-4.7,2c-1.1,1.3-1.7,3.1-1.7,5.3
			c0,2.3,0.6,4.1,1.7,5.4c1.1,1.3,2.7,2,4.7,2c2,0,3.5-0.7,4.7-2c1.1-1.3,1.7-3.1,1.7-5.4C32.9,27.5,32.4,25.7,31.3,24.4z
			 M30.5,34.5c-0.9,1.1-2.2,1.7-3.9,1.7c-1.7,0-3-0.6-3.9-1.7c-0.9-1.1-1.4-2.7-1.4-4.7c0-2,0.5-3.6,1.4-4.7
			c0.9-1.1,2.2-1.7,3.9-1.7c1.7,0,3,0.5,3.9,1.6c0.9,1.1,1.4,2.7,1.4,4.7C31.9,31.9,31.4,33.4,30.5,34.5z"/>
		<path style="fill:#157854;" d="M37.5,26.3c0-0.8,0-1.7-0.1-2.5h0.1l5.3,13.1h0.6l5.3-13.1h0.1c-0.1,0.8-0.1,1.6-0.1,2.3v10.8h1
			V22.7h-1.5l-5,12.5h-0.1l-5-12.5h-1.5v14.2h1V26.3z"/>
		<path style="fill:#157854;" d="M57.5,22.7H54v14.2h1v-5.9h2.2c1.7,0,3-0.4,4-1.1s1.4-1.8,1.4-3.2C62.5,24.1,60.9,22.7,57.5,22.7z
			 M60.4,29.4c-0.7,0.5-1.9,0.8-3.5,0.8h-2v-6.6h2.4c1.4,0,2.5,0.3,3.1,0.8c0.7,0.5,1,1.3,1,2.4C61.5,28,61.1,28.9,60.4,29.4z"/>
		<path style="fill:#157854;" d="M71.4,30.4c1-0.3,1.8-0.8,2.3-1.4c0.5-0.7,0.8-1.5,0.8-2.4c0-1.3-0.4-2.3-1.3-2.9s-2.1-1-3.9-1
			h-3.4v14.2h1v-6.2h3.5l3.7,6.2h1.2L71.4,30.4z M69.6,29.9h-2.7v-6.3h2.4c1.5,0,2.5,0.2,3.2,0.7s1,1.3,1,2.4c0,1-0.3,1.8-1,2.4
			C71.8,29.6,70.8,29.9,69.6,29.9z"/>
		<path style="fill:#157854;" d="M79.1,31.9h5.8l2,5H88l-5.6-14.3h-0.6L76,36.9h1.1L79.1,31.9z M81.5,25.9c0.2-0.5,0.4-1.1,0.6-1.7
			c0.2,0.7,0.4,1.3,0.6,1.7l1.9,5.1h-5.1L81.5,25.9z"/>
		<path style="fill:#157854;" d="M15.4,55.2c-0.6-0.4-1.5-0.8-2.6-1.2c-1.1-0.4-1.9-0.7-2.4-1c-0.5-0.3-0.8-0.6-1-1
			c-0.2-0.4-0.3-0.8-0.3-1.4c0-0.9,0.3-1.6,1-2.1s1.5-0.8,2.6-0.8c1.1,0,2.3,0.3,3.6,0.8l0.4-0.9c-1.2-0.5-2.6-0.8-4-0.8
			c-1.4,0-2.5,0.4-3.4,1.1C8.5,48.7,8,49.6,8,50.7c0,1,0.3,1.8,0.9,2.4c0.6,0.6,1.6,1.2,3.2,1.7c1,0.4,1.8,0.7,2.4,1
			c0.5,0.3,0.9,0.6,1.2,1c0.2,0.4,0.4,0.8,0.4,1.4c0,0.9-0.4,1.7-1.1,2.2s-1.7,0.8-2.9,0.8c-1.7,0-3.1-0.2-4.1-0.7v1
			c1,0.4,2.4,0.6,4.2,0.6c1.5,0,2.7-0.4,3.7-1.1c0.9-0.7,1.4-1.7,1.4-3c0-0.7-0.1-1.3-0.4-1.7C16.4,56,16,55.6,15.4,55.2z"/>
		<polygon style="fill:#157854;" points="20.8,62.1 29,62.1 29,61.1 21.8,61.1 21.8,54.7 28.6,54.7 28.6,53.8 21.8,53.8 21.8,48.1 
			29,48.1 29,47.1 20.8,47.1 		"/>
		<path style="fill:#157854;" d="M38.8,55.5h4.5v5.3c-1,0.4-2.1,0.6-3.5,0.6c-2.1,0-3.7-0.6-4.8-1.7c-1.1-1.1-1.6-2.8-1.6-5.1
			c0-2.1,0.6-3.7,1.7-4.9c1.2-1.2,2.7-1.8,4.7-1.8c1.4,0,2.7,0.3,4,0.9l0.4-0.9c-1.3-0.6-2.8-0.9-4.4-0.9c-1.5,0-2.8,0.3-4,1
			c-1.2,0.6-2.1,1.6-2.7,2.7c-0.6,1.2-0.9,2.5-0.9,4.1c0,2.4,0.6,4.3,1.9,5.7s3.1,2,5.4,2c1.8,0,3.4-0.3,4.9-0.9v-6.8h-5.5V55.5z"/>
		<path style="fill:#157854;" d="M58.5,56.9c0,1.4-0.4,2.5-1.2,3.3c-0.8,0.8-1.9,1.2-3.3,1.2c-1.5,0-2.6-0.4-3.4-1.2
			s-1.2-1.9-1.2-3.4v-9.7h-1.1v9.7c0,1.7,0.5,3.1,1.5,4.1c1,1,2.3,1.5,4.1,1.5c1.8,0,3.2-0.5,4.2-1.5c1-1,1.5-2.3,1.5-4v-9.7h-1
			V56.9z"/>
		<path style="fill:#157854;" d="M72.4,53.8c0.5-0.7,0.8-1.5,0.8-2.5c0-1.4-0.4-2.4-1.3-3.1s-2.3-1-4.1-1h-3.6v15h1v-6.5h3.7
			l3.9,6.5H74l-4.1-6.8C71,55,71.8,54.5,72.4,53.8z M68,54.7h-2.9v-6.6h2.5c1.5,0,2.7,0.3,3.3,0.8s1,1.3,1,2.5c0,1.1-0.3,1.9-1,2.5
			S69.3,54.7,68,54.7z"/>
		<path style="fill:#157854;" d="M81,47.1l-6,15h1.2l2.1-5.3h6.1l2.1,5.3h1.2l-5.9-15H81z M84,55.9h-5.4l2.1-5.4
			c0.2-0.5,0.4-1.1,0.6-1.8c0.2,0.8,0.4,1.3,0.6,1.8L84,55.9z"/>
	</g>
	<g>
		<rect x="4" y="12.6" style="fill:#157854;" width="88.7" height="0.8"/>
	</g>
	<polygon style="fill:#157854;" points="49.2,90 44.2,85.1 45.8,82.3 52.5,82.3 54.1,85.1 	"/>
	<g>
		<path style="fill:#157854;" d="M11,85.8c0.2-0.4,0.3-0.8,0.3-1.4c0-0.7-0.2-1.2-0.5-1.6c-0.3-0.4-0.8-0.6-1.4-0.6
			c-0.6,0-1.1,0.2-1.5,0.6c-0.3,0.4-0.5,0.9-0.5,1.6c0,0.7,0.2,1.2,0.5,1.6c0.3,0.4,0.8,0.6,1.5,0.6l0.2,0l0.8,1h0.7l-1-1.1
			C10.5,86.4,10.8,86.2,11,85.8z M9.4,86.2c-0.5,0-0.8-0.1-1.1-0.4S7.9,85,7.9,84.4c0-0.6,0.1-1,0.4-1.3s0.6-0.4,1.1-0.4
			c0.5,0,0.8,0.1,1.1,0.4s0.4,0.7,0.4,1.3c0,0.6-0.1,1-0.4,1.3S9.9,86.2,9.4,86.2z"/>
		<path style="fill:#157854;" d="M15,85.1c0,0.4-0.1,0.6-0.3,0.8s-0.5,0.3-0.8,0.3c-0.4,0-0.7-0.1-0.9-0.3s-0.3-0.5-0.3-0.8v-2.8
			h-0.5v2.8c0,0.5,0.1,0.9,0.4,1.2s0.7,0.4,1.2,0.4s0.9-0.1,1.2-0.4s0.4-0.7,0.4-1.2v-2.8H15V85.1z"/>
		<path style="fill:#157854;" d="M17.8,82.3l-1.7,4.3h0.5l0.5-1.4h1.7l0.5,1.4h0.5l-1.7-4.3H17.8z M17.3,84.8l0.5-1.3
			c0.1-0.2,0.1-0.4,0.2-0.6c0.1,0.2,0.1,0.5,0.2,0.6l0.5,1.3H17.3z"/>
		<polygon style="fill:#157854;" points="21,82.3 20.5,82.3 20.5,86.6 22.9,86.6 22.9,86.1 21,86.1 		"/>
		<rect x="23.6" y="82.3" style="fill:#157854;" width="0.5" height="4.3"/>
		<path style="fill:#157854;" d="M26.6,82.3h-1.3v4.3h1.2c0.7,0,1.3-0.2,1.7-0.6s0.6-0.9,0.6-1.6c0-0.7-0.2-1.2-0.6-1.5
			S27.2,82.3,26.6,82.3z M27.7,85.7c-0.3,0.3-0.7,0.4-1.3,0.4h-0.6v-3.4h0.7c0.6,0,1,0.1,1.2,0.4s0.4,0.7,0.4,1.3
			C28.1,85,28,85.4,27.7,85.7z"/>
		<path style="fill:#157854;" d="M30.7,82.3L29,86.6h0.5l0.5-1.4h1.7l0.5,1.4h0.5l-1.7-4.3H30.7z M30.2,84.8l0.5-1.3
			c0.1-0.2,0.1-0.4,0.2-0.6c0.1,0.2,0.1,0.5,0.2,0.6l0.5,1.3H30.2z"/>
		<path style="fill:#157854;" d="M34.7,82.3h-1.3v4.3h1.2c0.7,0,1.3-0.2,1.7-0.6s0.6-0.9,0.6-1.6c0-0.7-0.2-1.2-0.6-1.5
			S35.4,82.3,34.7,82.3z M35.9,85.7c-0.3,0.3-0.7,0.4-1.3,0.4h-0.6v-3.4h0.7c0.6,0,1,0.1,1.2,0.4s0.4,0.7,0.4,1.3
			C36.3,85,36.2,85.4,35.9,85.7z"/>
		<polygon style="fill:#157854;" points="37.8,86.6 40.2,86.6 40.2,86.1 38.3,86.1 38.3,84.6 40.1,84.6 40.1,84.1 38.3,84.1 
			38.3,82.8 40.2,82.8 40.2,82.3 37.8,82.3 		"/>
		<path style="fill:#157854;" d="M58.8,82.3l-1.7,4.3h0.5l0.5-1.4h1.7l0.5,1.4h0.5l-1.7-4.3H58.8z M58.3,84.8l0.5-1.3
			c0.1-0.2,0.1-0.4,0.2-0.6c0.1,0.2,0.1,0.5,0.2,0.6l0.5,1.3H58.3z"/>
		<path style="fill:#157854;" d="M64.2,83.5c0-0.4-0.1-0.7-0.4-0.9c-0.3-0.2-0.6-0.3-1.2-0.3h-1.2v4.3H62v-1.8h0.9l1,1.8h0.6
			l-1.2-1.9C64,84.5,64.2,84.1,64.2,83.5z M62.7,84.4H62v-1.6h0.6c0.4,0,0.6,0.1,0.8,0.2s0.3,0.3,0.3,0.6c0,0.3-0.1,0.5-0.2,0.6
			S63.1,84.4,62.7,84.4z"/>
		<polygon style="fill:#157854;" points="64.7,82.8 66.1,82.8 66.1,86.6 66.6,86.6 66.6,82.8 67.9,82.8 67.9,82.3 64.7,82.3 		"/>
		<path style="fill:#157854;" d="M71.9,82.2c-0.6,0-1.1,0.2-1.5,0.6s-0.5,0.9-0.5,1.6c0,0.7,0.2,1.2,0.5,1.6s0.8,0.6,1.5,0.6
			c0.6,0,1.1-0.2,1.4-0.6s0.5-0.9,0.5-1.6c0-0.7-0.2-1.2-0.5-1.6S72.5,82.2,71.9,82.2z M72.9,85.8c-0.2,0.3-0.6,0.4-1.1,0.4
			c-0.5,0-0.8-0.1-1.1-0.4s-0.4-0.7-0.4-1.3c0-0.6,0.1-1,0.4-1.3s0.6-0.4,1.1-0.4c0.5,0,0.8,0.1,1.1,0.4s0.4,0.7,0.4,1.3
			C73.3,85,73.2,85.5,72.9,85.8z"/>
		<path style="fill:#157854;" d="M77.5,85.1c0,0.4-0.1,0.6-0.3,0.8s-0.5,0.3-0.8,0.3c-0.4,0-0.7-0.1-0.9-0.3s-0.3-0.5-0.3-0.8v-2.8
			h-0.5v2.8c0,0.5,0.1,0.9,0.4,1.2s0.7,0.4,1.2,0.4s0.9-0.1,1.2-0.4s0.4-0.7,0.4-1.2v-2.8h-0.5V85.1z"/>
		<path style="fill:#157854;" d="M81.9,83.5c0-0.4-0.1-0.7-0.4-0.9s-0.6-0.3-1.2-0.3h-1.2v4.3h0.5v-1.8h0.9l1,1.8h0.6L81,84.7
			C81.6,84.5,81.9,84.1,81.9,83.5z M80.3,84.4h-0.7v-1.6h0.6c0.4,0,0.6,0.1,0.8,0.2s0.3,0.3,0.3,0.6c0,0.3-0.1,0.5-0.2,0.6
			S80.7,84.4,80.3,84.4z"/>
		<path style="fill:#157854;" d="M86.1,82.8c-0.3-0.4-0.8-0.6-1.4-0.6c-0.6,0-1.1,0.2-1.5,0.6s-0.5,0.9-0.5,1.6
			c0,0.7,0.2,1.2,0.5,1.6s0.8,0.6,1.5,0.6c0.6,0,1.1-0.2,1.4-0.6s0.5-0.9,0.5-1.6C86.6,83.8,86.4,83.2,86.1,82.8z M85.7,85.8
			c-0.2,0.3-0.6,0.4-1.1,0.4c-0.5,0-0.8-0.1-1.1-0.4s-0.4-0.7-0.4-1.3c0-0.6,0.1-1,0.4-1.3s0.6-0.4,1.1-0.4c0.5,0,0.8,0.1,1.1,0.4
			s0.4,0.7,0.4,1.3C86.1,85,85.9,85.5,85.7,85.8z"/>
	</g>
	<g>
		<rect x="4" y="73" style="fill:#157854;" width="88.7" height="0.8"/>
	</g>
</g>
</svg>
