<?xml version="1.0" encoding="utf-8"?>
<!-- Generator: Adobe Illustrator 19.1.0, SVG Export Plug-In . SVG Version: 6.00 Build 0)  -->
<svg version="1.1" id="Camada_1" xmlns="http://www.w3.org/2000/svg" xmlns:xlink="http://www.w3.org/1999/xlink" x="0px" y="0px"
	 viewBox="0 0 338.4 233.1" style="enable-background:new 0 0 338.4 233.1;" xml:space="preserve">
<g>
	<path style="fill:#6F6F6E;" d="M146.5,222.8c0.4-0.8,0.6-1.7,0.6-2.5c0-0.8-0.1-1.4-0.4-1.9c-0.3-0.5-0.7-0.9-1.2-1.2
		c-0.5-0.3-1-0.4-1.6-0.4c-0.5,0-1,0.1-1.4,0.2c-0.4,0.1-0.8,0.3-1,0.4c-0.3,0.2-0.5,0.3-0.8,0.6c-0.3,0.2-0.5,0.4-0.6,0.5l2.5-8.2
		h-0.8c-0.9,0.2-2.3,0.3-4.2,0.3l-0.4,1.1h0.4c0.4,0,0.8,0,1,0.1c0.3,0.1,0.4,0.3,0.4,0.5c0,0.1,0,0.3-0.1,0.7l-2.7,8.7
		c-0.3,1-0.5,1.8-0.5,2.3c0,0.9,0.4,1.7,1.1,2.3c0.7,0.7,1.7,1,3.1,1c1,0,1.9-0.2,2.8-0.6c0.9-0.4,1.7-1,2.4-1.7
		C145.6,224.4,146.1,223.6,146.5,222.8z M143.6,222.8c-0.3,1-0.8,1.8-1.4,2.5c-0.6,0.7-1.4,1.1-2.3,1.1c-0.5,0-1-0.2-1.2-0.5
		c-0.3-0.3-0.4-0.7-0.4-1.2c0-0.3,0.1-0.7,0.2-1.4c0.2-0.7,0.4-1.3,0.7-2c0.9-2,2-3,3.3-3c0.5,0,1,0.2,1.2,0.6
		c0.3,0.4,0.4,0.9,0.4,1.5C144.1,221,143.9,221.8,143.6,222.8z"/>
	<path style="fill:#6F6F6E;" d="M158.8,217c-0.2-0.2-0.5-0.3-0.8-0.3c-0.3,0-0.5,0.1-0.7,0.4c-0.2,0.2-0.3,0.6-0.3,1
		c0,0.3,0.1,0.8,0.4,1.5c0.3,0.7,0.4,1.2,0.4,1.6c0,0.5-0.1,1-0.4,1.6c-0.2,0.5-0.5,1.1-0.9,1.6c-0.1,0.2-0.9,1.1-2.3,2.8
		c0.2-1,0.2-2.2,0.2-3.7c0-1.8-0.2-3.4-0.7-4.7c-0.4-1.3-1.3-2-2.5-2c-0.6,0-1.2,0.3-1.9,0.8c-0.7,0.5-1.1,1.6-1.3,3.2h1
		c0.1-1.4,0.5-2.1,1.2-2.1c0.2,0,0.4,0.1,0.5,0.3c0.2,0.2,0.3,0.4,0.3,0.7c0.1,0.5,0.2,1.1,0.3,1.7c0.1,0.6,0.1,1.2,0.1,1.8
		c0,0.6,0,1.1,0,1.6c0,2.1-0.3,3.8-1,4.9c-0.3,0.5-0.6,0.9-1.1,1.2c-0.4,0.3-0.9,0.5-1.5,0.5c-0.3,0-0.8-0.1-1.5-0.3
		c-0.3-0.1-0.6-0.2-0.8-0.3c-0.2-0.1-0.5-0.1-0.7-0.1c-0.4,0-0.7,0.1-1,0.3c-0.3,0.2-0.4,0.5-0.4,0.9c0,0.4,0.2,0.8,0.6,1
		c0.4,0.2,0.9,0.3,1.4,0.3c1.2,0,2.6-0.5,4.2-1.4c1.6-0.9,3.2-2.1,4.7-3.5c1.5-1.5,2.7-3,3.7-4.7c1-1.6,1.4-3.2,1.4-4.6
		c0-0.5-0.1-0.9-0.2-1.2C159.2,217.4,159,217.1,158.8,217z"/>
	<path style="fill:#6F6F6E;" d="M191.8,211.6l0.4-1.1h-5.9l-8.6,12.6l-0.9-12.6h-5.9l-0.3,1.1h0.3c0.5,0,1,0.1,1.3,0.3
		c0.3,0.2,0.4,0.5,0.4,0.9c0,0.2-0.1,0.5-0.1,0.7l-3.6,9.4c-0.3,0.7-0.6,1.4-1.1,1.9c-0.5,0.6-0.9,0.9-1.5,0.9l-0.4,1.1h5.4l0.4-1.1
		c-0.7-0.1-1.2-0.2-1.5-0.3c-0.4-0.1-0.6-0.4-0.6-0.9c0-0.2,0.1-0.6,0.4-1.2l4.1-10.8l0.9,14.3h1.6l9.7-14.4l-2.9,11.4
		c-0.1,0.6-0.3,1-0.5,1.2c-0.2,0.2-0.4,0.4-0.7,0.5c-0.3,0.1-0.8,0.1-1.4,0.1l-0.4,1.1h7.7l0.4-1.1c-0.7,0-1.2-0.1-1.5-0.2
		c-0.4-0.2-0.5-0.5-0.5-0.9c0-0.2,0.1-0.6,0.2-1.1l2.5-9.6c0.2-0.7,0.4-1.2,0.5-1.5c0.2-0.3,0.4-0.5,0.7-0.7
		C190.7,211.7,191.2,211.6,191.8,211.6z"/>
	<path style="fill:#6F6F6E;" d="M199.6,225.8c-0.1,0-0.2,0-0.2-0.1c-0.1-0.1-0.1-0.2-0.1-0.3c0-0.1,0.1-0.4,0.2-1l2.3-7.4H199
		l-0.5,1.5c-0.1-0.3-0.2-0.6-0.3-0.8c-0.1-0.3-0.3-0.5-0.6-0.7c-0.3-0.2-0.7-0.3-1.2-0.3c-1.1,0-2.1,0.4-3.1,1.2
		c-1,0.8-1.7,1.8-2.3,3.1c-0.6,1.2-0.8,2.4-0.8,3.5c0,0.5,0.1,1,0.2,1.4c0.2,0.4,0.4,0.8,0.7,1.1c0.3,0.3,0.7,0.4,1.2,0.4
		c0.8,0,1.5-0.2,2.2-0.7c0.6-0.5,1.3-1.1,1.9-1.9c0,0.7,0.1,1.3,0.4,1.8c0.2,0.5,0.8,0.8,1.6,0.8c0.4,0,0.8-0.1,1.1-0.2
		c0.4-0.2,0.7-0.4,1.1-0.7c0.4-0.3,0.7-0.6,1-1c0.3-0.4,0.6-0.8,0.8-1.3h-1.2C200.7,225.2,200.1,225.8,199.6,225.8z M197.6,221.1
		c-0.2,0.7-0.5,1.4-0.9,2.1c-0.4,0.7-0.8,1.2-1.2,1.6c-0.5,0.4-0.9,0.6-1.3,0.6c-0.6,0-0.9-0.5-0.9-1.5c0-0.7,0.2-1.5,0.5-2.5
		c0.4-1,0.8-1.8,1.4-2.5c0.6-0.7,1.2-1.1,1.8-1.1c0.4,0,0.7,0.1,0.8,0.4c0.1,0.3,0.2,0.6,0.2,1C197.9,219.8,197.8,220.4,197.6,221.1
		z"/>
	<path style="fill:#6F6F6E;" d="M213.4,217.2c-0.2-0.4-0.6-0.5-1.2-0.5c-0.4,0-0.9,0.2-1.3,0.5c-0.5,0.3-0.9,0.7-1.3,1.3
		c-0.4,0.5-0.8,1-1.1,1.5c-0.3,0.5-0.7,1.1-1.1,1.9c0.5-1.5,0.7-2.6,0.7-3.3c0-0.4-0.1-0.8-0.3-1.2c-0.2-0.4-0.6-0.6-1.3-0.6
		c-0.4,0-0.8,0.1-1.2,0.3c-0.5,0.2-0.9,0.6-1.4,1.1c-0.5,0.5-1,1.2-1.4,2.2h1.1c0.2-0.4,0.4-0.8,0.7-1.2c0.3-0.4,0.6-0.7,1-0.7
		c0.1,0,0.2,0,0.3,0.1c0.1,0.1,0.1,0.2,0.1,0.3c0,0.3-0.1,0.7-0.3,1.4l-1.9,6.8h2.9l0.1-0.5c0.3-0.9,0.6-1.8,1-2.7
		c0.4-0.9,0.8-1.7,1.2-2.3c0.4-0.7,0.8-1.2,1.2-1.6c0.4-0.4,0.7-0.6,0.9-0.6c0.2,0,0.4,0.1,0.6,0.4c0.3,0.4,0.7,0.6,1.1,0.6
		c0.4,0,0.8-0.2,1.1-0.6c0.3-0.4,0.4-0.8,0.4-1.4C213.7,217.9,213.6,217.6,213.4,217.2z"/>
	<path style="fill:#6F6F6E;" d="M223.2,217.5c-0.3-0.2-0.6-0.4-1-0.6c-0.4-0.1-0.8-0.2-1.3-0.2c-1.4,0-2.7,0.4-3.8,1.1
		c-1.2,0.8-2.1,1.7-2.7,2.9c-0.6,1.2-1,2.3-1,3.5c0,1,0.3,1.7,0.9,2.3c0.6,0.6,1.5,0.8,2.6,0.8c1.3,0,2.4-0.3,3.5-1
		c1-0.7,1.8-1.5,2.4-2.3h-1.3c-0.4,0.5-0.9,1-1.5,1.4c-0.6,0.4-1.3,0.6-2,0.6c-0.4,0-0.7-0.1-1.1-0.3c-0.4-0.2-0.5-0.7-0.5-1.4
		c0-0.7,0.2-1.5,0.5-2.6c0.4-1.1,0.8-2,1.5-2.7c0.6-0.8,1.3-1.2,2-1.2c0.2,0,0.5,0.1,0.7,0.2c0.3,0.1,0.4,0.4,0.4,0.8
		c0,0.2,0,0.4-0.1,0.6c-0.1,0.3-0.1,0.5-0.1,0.6c0,0.3,0.1,0.6,0.3,0.8c0.2,0.2,0.5,0.3,0.8,0.3c0.5,0,0.8-0.2,1.1-0.5
		c0.3-0.3,0.4-0.7,0.4-1.2c0-0.3-0.1-0.6-0.2-0.9C223.7,218,223.5,217.7,223.2,217.5z"/>
	<path style="fill:#6F6F6E;" d="M234.5,217.3c-0.5-0.4-1.3-0.6-2.4-0.6c-1.4,0-2.7,0.4-3.9,1.1c-1.2,0.7-2.1,1.7-2.8,2.9
		c-0.7,1.2-1,2.4-1,3.6c0,1,0.3,1.8,1,2.3c0.7,0.5,1.5,0.8,2.5,0.8c1.4,0,2.6-0.4,3.6-1.1c1-0.8,1.8-1.5,2.3-2.3h-1.3
		c-1.1,1.3-2.3,2-3.5,2c-0.6,0-1-0.1-1.3-0.4c-0.3-0.3-0.4-0.7-0.4-1.3c0-0.3,0-0.6,0.1-0.9l0.3,0c1.5-0.1,2.8-0.4,3.8-0.8
		c1-0.4,1.8-0.8,2.3-1.3c0.5-0.5,0.9-0.9,1.1-1.4c0.2-0.4,0.3-0.8,0.3-1.1C235.2,218.1,235,217.6,234.5,217.3z M231.4,220.8
		c-0.8,0.7-2.1,1.1-3.7,1.4c0-0.1,0.2-0.5,0.4-1c0.2-0.6,0.5-1.1,0.8-1.6c0.3-0.5,0.7-1,1.2-1.4c0.5-0.4,1-0.6,1.6-0.6
		c0.3,0,0.6,0.1,0.8,0.3c0.2,0.2,0.3,0.5,0.3,0.7C232.7,219.4,232.3,220.2,231.4,220.8z"/>
	<path style="fill:#6F6F6E;" d="M240.1,225.3c-0.4,0.4-0.7,0.6-0.9,0.6c-0.1,0-0.2,0-0.3-0.1c-0.1-0.1-0.1-0.2-0.1-0.3
		c0-0.2,0.1-0.6,0.3-1.3l4.3-14h-0.8c-0.4,0.1-0.9,0.2-1.3,0.2c-0.5,0-1,0.1-1.5,0.1h-1.3l-0.3,1.1c0.6,0,1.1,0,1.3,0.1
		c0.2,0.1,0.3,0.3,0.3,0.6c0,0.2-0.1,0.7-0.3,1.3l-3.1,10.1c-0.3,0.9-0.4,1.5-0.4,1.8c0,0.5,0.2,0.9,0.6,1.2
		c0.4,0.3,0.9,0.5,1.5,0.5c1,0,1.8-0.4,2.5-1.1c0.7-0.7,1.2-1.5,1.6-2.2H241C240.8,224.5,240.5,225,240.1,225.3z"/>
	<path style="fill:#6F6F6E;" d="M252.6,217.3c-0.7-0.4-1.6-0.6-2.6-0.6c-1.2,0-2.3,0.3-3.4,0.9c-1,0.6-1.9,1.4-2.5,2.3
		c-0.6,1-0.9,2-0.9,3.1c0,0.9,0.2,1.6,0.6,2.3c0.4,0.7,1,1.2,1.7,1.6c0.7,0.4,1.6,0.6,2.5,0.6c1,0,1.9-0.2,2.7-0.5
		c0.8-0.3,1.5-0.8,2.1-1.4c0.6-0.6,1.1-1.3,1.4-2.1c0.3-0.8,0.5-1.6,0.5-2.4c0-0.8-0.2-1.5-0.5-2.1
		C253.9,218.2,253.3,217.7,252.6,217.3z M251.7,221.9c-0.2,0.7-0.4,1.4-0.7,2.1c-0.3,0.7-0.7,1.3-1.2,1.7c-0.5,0.4-1.1,0.7-1.7,0.7
		c-0.6,0-1-0.2-1.3-0.7c-0.3-0.4-0.5-1-0.5-1.7c0-0.5,0.1-1.1,0.2-1.8c0.2-0.7,0.4-1.4,0.7-2.1c0.3-0.7,0.7-1.3,1.2-1.7
		c0.5-0.5,1-0.7,1.6-0.7c0.6,0,1.1,0.2,1.4,0.6c0.3,0.4,0.5,1,0.5,1.8C251.9,220.6,251.8,221.2,251.7,221.9z"/>
	<path style="fill:#6F6F6E;" d="M268.7,215c0.6-1.1,1.3-2,2.2-2.6c0.9-0.7,1.8-1,2.9-1c1.6,0,2.7,0.7,3.3,2.2
		c0.3,0.8,0.5,1.7,0.5,2.8h1.1l1.3-5.7h-1.1c-0.3,0.8-0.6,1.4-1,1.7c-0.8-1.4-2.3-2.1-4.3-2.1c-1.4,0-2.7,0.3-3.9,0.9
		c-1.2,0.6-2.3,1.4-3.3,2.5c-0.9,1-1.7,2.2-2.2,3.5c-0.5,1.3-0.8,2.6-0.8,3.8c0,1.1,0.2,2.2,0.7,3.2c0.5,1,1.2,1.8,2.1,2.4
		c1,0.6,2.2,0.9,3.7,0.9c1,0,1.9-0.1,2.7-0.4c0.8-0.2,1.7-0.6,2.5-1l1.4,0.9l1.2-4c0.2-0.7,0.5-1.2,0.7-1.5c0.2-0.3,0.6-0.4,1.1-0.4
		l0.4-1.1h-6.7L273,221c1.1,0,1.6,0.4,1.6,1.1c0,0.2,0,0.4-0.1,0.7l-0.1,0.5c-0.3,1-0.8,1.7-1.6,2.2c-0.8,0.4-1.6,0.7-2.5,0.7
		c-0.9,0-1.7-0.2-2.2-0.7c-0.5-0.5-0.8-1-1-1.6c-0.2-0.6-0.2-1.2-0.2-1.8c0-1.1,0.2-2.2,0.5-3.5C267.7,217.3,268.1,216.1,268.7,215z
		"/>
	<path style="fill:#6F6F6E;" d="M290.3,217.3c-0.5-0.4-1.3-0.6-2.4-0.6c-1.4,0-2.7,0.4-3.9,1.1c-1.2,0.7-2.1,1.7-2.8,2.9
		c-0.7,1.2-1,2.4-1,3.6c0,1,0.3,1.8,1,2.3c0.7,0.5,1.5,0.8,2.5,0.8c1.4,0,2.6-0.4,3.6-1.1c1-0.8,1.8-1.5,2.3-2.3h-1.3
		c-1.1,1.3-2.3,2-3.5,2c-0.6,0-1-0.1-1.3-0.4c-0.3-0.3-0.4-0.7-0.4-1.3c0-0.3,0-0.6,0.1-0.9l0.3,0c1.5-0.1,2.8-0.4,3.8-0.8
		c1-0.4,1.8-0.8,2.3-1.3c0.5-0.5,0.9-0.9,1.1-1.4c0.2-0.4,0.3-0.8,0.3-1.1C291,218.1,290.8,217.6,290.3,217.3z M287.2,220.8
		c-0.8,0.7-2.1,1.1-3.7,1.4c0-0.1,0.2-0.5,0.4-1c0.2-0.6,0.5-1.1,0.8-1.6c0.3-0.5,0.7-1,1.2-1.4c0.5-0.4,1-0.6,1.6-0.6
		c0.3,0,0.6,0.1,0.8,0.3c0.2,0.2,0.3,0.5,0.3,0.7C288.4,219.4,288,220.2,287.2,220.8z"/>
	<path style="fill:#6F6F6E;" d="M312.1,225.2c-0.3,0.2-0.6,0.4-0.8,0.4c-0.3,0-0.4-0.1-0.4-0.4c0-0.2,0.1-0.5,0.2-1l1.2-3.8
		c0.2-0.6,0.3-0.9,0.3-1.1c0-0.2,0.1-0.4,0.1-0.6c0-0.3-0.1-0.6-0.2-0.9c-0.2-0.3-0.4-0.6-0.7-0.8c-0.3-0.2-0.8-0.3-1.3-0.3
		c-0.9,0-1.7,0.2-2.5,0.7c-0.8,0.5-1.5,1.1-2.1,1.8c-0.6,0.7-1.2,1.5-1.7,2.3l0.3-1.1c0.3-0.9,0.4-1.5,0.4-1.9
		c0-0.6-0.2-1.1-0.6-1.4c-0.4-0.3-1-0.5-1.7-0.5c-0.5,0-1,0.1-1.5,0.3c-0.5,0.2-1,0.5-1.6,1c-0.6,0.5-1.1,1-1.6,1.6
		c-0.5,0.6-1,1.3-1.5,2.1l0.4-1.2c0.3-0.9,0.4-1.6,0.4-2.1c0-0.4-0.1-0.7-0.3-1c-0.2-0.3-0.4-0.5-0.7-0.6c-0.3-0.1-0.6-0.2-1-0.2
		c-1,0-1.8,0.3-2.5,1c-0.7,0.7-1.2,1.5-1.5,2.4h1.1c0.2-0.5,0.5-0.9,0.7-1.2c0.2-0.3,0.4-0.5,0.6-0.6c0.2-0.1,0.3-0.2,0.4-0.2
		c0.1,0,0.2,0,0.3,0.1c0.1,0.1,0.1,0.2,0.1,0.3c0,0.2-0.1,0.6-0.3,1.4l-2.1,7h2.9l0.1-0.4c0.3-0.9,0.6-1.8,1.1-2.7
		c0.4-0.9,0.9-1.8,1.5-2.5c0.5-0.8,1.1-1.4,1.7-1.9c0.6-0.5,1.2-0.7,1.7-0.7c0.3,0,0.5,0.1,0.7,0.3c0.1,0.2,0.2,0.4,0.2,0.7
		s-0.1,0.7-0.2,1.2l-1.9,6.1h2.9l0.2-0.6c0.4-1.2,0.9-2.4,1.5-3.6c0.7-1.2,1.4-2.2,2.2-2.9c0.8-0.8,1.5-1.1,2.2-1.1
		c0.3,0,0.5,0.1,0.7,0.3c0.2,0.2,0.3,0.4,0.3,0.7c0,0.2-0.1,0.7-0.3,1.4l-0.9,3c-0.2,0.6-0.3,1-0.3,1.3c0,0.4,0.2,0.8,0.5,1.2
		c0.3,0.3,0.8,0.5,1.4,0.5c1.8,0,3.2-1.1,4.5-3.4h-1.2C312.8,224.5,312.4,224.9,312.1,225.2z"/>
	<path style="fill:#6F6F6E;" d="M324.2,225.8c-0.1,0-0.2,0-0.2-0.1c-0.1-0.1-0.1-0.2-0.1-0.3c0-0.1,0.1-0.4,0.2-1l2.3-7.4h-2.7
		l-0.4,1.5c-0.1-0.3-0.2-0.6-0.3-0.8c-0.1-0.3-0.3-0.5-0.6-0.7c-0.3-0.2-0.7-0.3-1.2-0.3c-1.1,0-2.1,0.4-3.1,1.2
		c-1,0.8-1.7,1.8-2.3,3.1c-0.6,1.2-0.8,2.4-0.8,3.5c0,0.5,0.1,1,0.2,1.4c0.2,0.4,0.4,0.8,0.7,1.1c0.3,0.3,0.7,0.4,1.2,0.4
		c0.8,0,1.5-0.2,2.2-0.7c0.6-0.5,1.3-1.1,1.9-1.9c0,0.7,0.1,1.3,0.4,1.8c0.2,0.5,0.8,0.8,1.6,0.8c0.4,0,0.8-0.1,1.1-0.2
		c0.4-0.2,0.7-0.4,1.1-0.7c0.4-0.3,0.7-0.6,1-1c0.3-0.4,0.6-0.8,0.8-1.3h-1.2C325.3,225.2,324.8,225.8,324.2,225.8z M322.3,221.1
		c-0.2,0.7-0.5,1.4-0.9,2.1c-0.4,0.7-0.8,1.2-1.2,1.6c-0.4,0.4-0.9,0.6-1.3,0.6c-0.6,0-0.9-0.5-0.9-1.5c0-0.7,0.2-1.5,0.5-2.5
		c0.4-1,0.8-1.8,1.4-2.5c0.6-0.7,1.2-1.1,1.8-1.1c0.4,0,0.7,0.1,0.8,0.4c0.1,0.3,0.2,0.6,0.2,1C322.6,219.8,322.5,220.4,322.3,221.1
		z"/>
	<path style="fill:#6F6F6E;" d="M338,218.1c-0.1-0.2-0.3-0.4-0.6-0.7c-0.3-0.2-0.7-0.4-1.2-0.5c-0.5-0.1-1.1-0.2-1.9-0.2
		c-1.2,0-2.1,0.2-2.8,0.5c-0.7,0.3-1.2,0.7-1.4,1.2c-0.3,0.4-0.4,0.9-0.4,1.2c0,0.4,0.1,0.8,0.3,1.2c0.2,0.4,0.5,0.8,1,1.2
		c0.4,0.4,1,0.9,1.6,1.5c0.4,0.3,0.6,0.6,0.7,0.8c0.1,0.2,0.2,0.4,0.2,0.7c0,0.4-0.2,0.8-0.5,1.1c-0.3,0.3-0.8,0.4-1.3,0.4
		c-0.6,0-1-0.1-1.2-0.4c-0.2-0.3-0.3-0.6-0.4-1.1c-0.1-1.1-0.6-1.6-1.4-1.6c-0.4,0-0.7,0.1-1,0.4c-0.3,0.3-0.4,0.6-0.4,1
		c0,0.6,0.3,1.1,1,1.7c0.6,0.6,1.8,0.9,3.4,0.9c1.1,0,2-0.1,2.7-0.5c0.7-0.3,1.2-0.7,1.5-1.2c0.3-0.5,0.5-1,0.5-1.5
		c0-0.7-0.2-1.2-0.5-1.7c-0.4-0.4-0.9-1-1.7-1.6c-0.4-0.4-0.7-0.6-0.9-0.8c-0.2-0.2-0.4-0.4-0.5-0.6c-0.1-0.2-0.2-0.5-0.2-0.7
		c0-0.4,0.2-0.6,0.5-0.9c0.3-0.2,0.7-0.3,1.1-0.3c0.5,0,0.8,0.1,1,0.2c0.2,0.2,0.3,0.4,0.4,0.6c0.1,0.4,0.3,0.7,0.3,0.9
		c0.1,0.2,0.2,0.4,0.4,0.5c0.2,0.1,0.4,0.2,0.7,0.2c0.4,0,0.7-0.1,0.9-0.4c0.2-0.3,0.3-0.5,0.3-0.9
		C338.1,218.5,338.1,218.3,338,218.1z"/>
</g>
<g>
	<path style="fill:#6F6F6E;" d="M170.5,52.6c0,1.9,0.1,8.7,0.1,16.1V84h0v3.4c0,7.3,0,15.1,0,17c0,9.3,10.2,8.9,10.2,8.9h13.7v-3.9
		h-1.8c-3.3,0-5.7-0.5-7.2-1.4c-1.4-0.9-2.3-2.2-2.6-3.9c-0.3-1.7-0.4-8.9-0.4-16.8v-0.3h0V75.8c0-6.1,0.5-11,1.4-14.5
		c1-3.5,3.1-6.9,6.4-10.2c3.4-3.3,6.2-4.9,8.6-4.9c2,0,3.5,1.4,4.5,4.2c1.5,4.1,3.6,6.2,6.4,6.2c1.6,0,2.9-0.6,4-1.8
		c1.1-1.2,1.6-2.6,1.6-4.2c0-2.4-1.1-4.7-3.2-7c-2.1-2.3-5-3.4-8.7-3.4c-4.1,0-8.2,1.7-12.5,5c-4.3,3.4-7.3,6.7-9.2,11.6
		c-0.2-7.3-0.2-14.2-0.2-14.2s-15.2,0.1-20.6,0.1l0,4.1h1.8C169.3,46.9,170.5,50,170.5,52.6z"/>
	<path style="fill:#6F6F6E;" d="M251.3,125.1c-4.1,0-8.2,1.7-12.5,5c-4.3,3.3-7.3,6.7-9.2,11.6c-0.2-7.3-0.2-14.2-0.2-14.2
		s-15.2,0.1-20.6,0.1l0,4.1h1.8c6.5,0,7.6,3,7.7,5.7c0,1.9,0.1,8.7,0.1,16.1v15.3h0v3.4c0,7.3,0,15.1,0,17c0,9.3,10.2,8.9,10.2,8.9
		h13.7v-3.9h-1.8c-3.4,0-5.7-0.5-7.2-1.4c-1.4-0.9-2.3-2.2-2.5-3.9c-0.3-1.7-0.4-8.9-0.4-16.8v-0.3h0v-11.3c0-6.1,0.5-11,1.4-14.5
		c0.9-3.5,3.1-6.9,6.4-10.2c3.3-3.3,6.2-4.9,8.6-4.9c2,0,3.5,1.4,4.5,4.2c1.5,4.1,3.6,6.2,6.4,6.2c1.6,0,2.9-0.6,4-1.8
		c1.1-1.2,1.6-2.6,1.6-4.2c0-2.4-1.1-4.7-3.2-7C257.9,126.2,255,125.1,251.3,125.1z"/>
	<path style="fill:#6F6F6E;" d="M327.8,135.7c-7-7.1-15.7-10.6-26-10.6c-10.3,0-18.9,3.5-25.9,10.6c-7,7.1-10.5,15.8-10.5,26.3
		c0,11.3,3.6,20.4,10.7,27.1c7.1,6.7,15.7,10.1,25.8,10.1c10.1,0,18.7-3.3,25.8-9.9c7.1-6.6,10.7-15.7,10.7-27.2
		C338.4,151.6,334.9,142.8,327.8,135.7z M318.7,188c-3.9,4.9-9.5,7.3-16.8,7.3c-7.1,0-12.7-2.4-16.7-7.3c-4-4.9-5.9-13.4-5.9-25.6
		c0-12.1,1.9-20.7,5.8-25.8c3.9-5.1,9.5-7.7,16.8-7.7c7.4,0,13,2.6,16.8,7.7c3.8,5.1,5.8,13.7,5.8,25.8
		C324.5,174.6,322.5,183.1,318.7,188z"/>
	<path style="fill:#6F6F6E;" d="M235.7,71.3L235.7,71.3l0,12.5h0v3.4c0,7.3,0,15.1,0,17c0,9.3,10.2,8.9,10.2,8.9h13.7v-3.9h-1.8
		c-3.3,0-5.7-0.5-7.2-1.4c-1.4-0.9-2.3-2.2-2.6-3.9c-0.3-1.7-0.4-8.9-0.4-16.8v-0.3h0v-3.3h0v-11c0-0.5,0-0.9,0-1.4h0V46.8h20.7
		v-3.8h-20.7v-13h-4.5l-1.7,6.3c0,0-0.4,1.2-0.9,2.7c-0.6,1.5-3.6,4-14.7,4v3.8h9.9V71.3z"/>
	<path style="fill:#6F6F6E;" d="M198.7,192.7c-1.4-0.9-2.3-2.2-2.6-3.9c-0.3-1.7-0.4-8.9-0.4-16.8v-0.3h0l-0.1-6.5v-37.4h-12
		c0,0,0.1,16,0.1,23.5v15.5c0,5.9-0.7,10.4-2.1,13.5c-1.4,3.2-4.1,6.1-8,9c-3.9,2.8-8,4.2-12.3,4.2c-3,0-5.7-0.8-8-2.4
		c-2.3-1.6-3.7-3.4-4.3-5.6c-0.6-2.1-0.8-5.5-0.8-10.2v-49.7h18.3v-3.6c-3.7-0.4-6.4-1.3-8.2-2.7c-1.8-1.4-3.3-3.4-4.4-5.9
		l-4.8-11.1L105.7,0h-3L72,73.4c-1.2,2.9-4.7,11.4-7.7,18.5c-2.3-0.2-4.7-0.3-7.1-0.3c-16.3,0-29.9,4.9-40.8,14.8
		C5.5,116.3,0,129.3,0,145.7c0,16.7,5.4,30.2,16.1,40.3c10.8,10.1,24.5,15.2,41.3,15.2c17.2,0,31.1-5.1,41.7-15.2
		c10.6-10.1,15.9-23.4,15.9-39.8c0-16.9-5.5-30.2-16.6-40C90,98.8,80,94.2,68.4,92.4c2.8-7.1,5.5-13.8,7-17.5l2.8-6.7l20.1-48.1
		c0,0,20.1,48.1,20.1,48.1l16,38.1c2.4,5.7,3.6,9.1,3.6,10.2c0,2.2-0.9,3.7-2.7,4.5c-1.1,0.5-2.8,0.8-5,0.9h-5.4v3.8
		c4,0,6.7,0.4,8.2,1.3c1.5,0.8,2.4,2.1,2.6,3.9c0.3,1.8,0.4,6.6,0.4,14.5v29.3c0,6.1,0.7,10.6,2,13.6c1.3,3,3.7,5.6,7.2,7.7
		c3.5,2.1,7.6,3.1,12.1,3.1c5.3,0,10.1-1.3,14.5-4c4.4-2.7,8.3-6.7,11.7-12c0,0.2,0,0.3,0,0.5c0,2.5,0,4.5,0,5.3
		c0,9.3,10.2,8.9,10.2,8.9h13.7v-3.9h-1.8C202.5,194.1,200.1,193.6,198.7,192.7z M86.9,108.6c6.8,8.8,10.2,21.3,10.2,37.8
		c0,16.9-3.5,29.6-10.4,38.1c-6.9,8.5-16.3,12.8-28.2,12.8c-13.6,0-23.7-4.3-30.5-12.8c-6.8-8.5-10.2-21.3-10.2-38.3
		c0-16.7,3.4-29.4,10.2-37.9c6.8-8.5,16.5-12.8,29.3-12.8c1.9,0,3.7,0.1,5.4,0.3c-1.6,3.9-2.8,6.8-2.9,7.1c-3.2,8.3-6,13.7-8.3,16.2
		c-2.3,2.6-5.8,4.2-10.4,4.9v3.6h4.1c0,0,8.7,1.3,13-9.2c0.6-1.5,4.6-11.6,8.7-22C75.2,98.1,81.9,102.1,86.9,108.6z"/>
</g>
<path style="fill:#008D36;" d="M108,64.2l-9.9-3.3l-9.9,3.3L83,72.5l1.8,9.4l8,6.1h10.5l8-6.1l1.8-9.4L108,64.2z M105.9,79.3L101,83
	h-6.4l-4.9-3.7l-1.1-5.7l3.2-5l6-2l6,2l3.2,5L105.9,79.3z"/>
</svg>
