<svg version="1.1" id="Camada_1" xmlns="http://www.w3.org/2000/svg" xmlns:xlink="http://www.w3.org/1999/xlink" x="0px" y="0px"
	 viewBox="0 0 339.8 103.9" style="enable-background:new 0 0 339.8 103.9;" xml:space="preserve">
<style type="text/css">
	.st0{fill:#6F6F6E;}
	.st1{fill:#008D36;}
</style>
<g>
	<g>
		<path class="st0" d="M128.9,90.4c0,0.9-0.2,1.8-0.6,2.7c-0.4,0.9-1,1.7-1.7,2.4c-0.7,0.7-1.6,1.3-2.5,1.8
			c-0.9,0.4-1.9,0.6-2.9,0.6c-1.4,0-2.5-0.3-3.2-1c-0.8-0.7-1.1-1.5-1.1-2.4c0-0.6,0.2-1.4,0.5-2.5l2.8-9.1c0.1-0.4,0.2-0.6,0.2-0.7
			c0-0.3-0.1-0.5-0.4-0.6c-0.3-0.1-0.6-0.1-1.1-0.1h-0.4l0.4-1.2c2,0,3.5-0.1,4.4-0.3h0.9l-2.6,8.6c0.1-0.1,0.3-0.3,0.6-0.5
			c0.3-0.2,0.6-0.5,0.8-0.6c0.3-0.2,0.6-0.3,1.1-0.5c0.5-0.1,1-0.2,1.5-0.2c0.6,0,1.2,0.1,1.7,0.4c0.5,0.3,0.9,0.7,1.3,1.3
			C128.7,88.9,128.9,89.6,128.9,90.4 M125.7,90.4c0-0.6-0.1-1.1-0.4-1.5c-0.3-0.4-0.7-0.6-1.3-0.6c-1.4,0-2.6,1-3.5,3.1
			c-0.3,0.7-0.5,1.4-0.7,2.1c-0.2,0.7-0.2,1.2-0.2,1.5c0,0.5,0.2,0.9,0.5,1.3c0.3,0.3,0.7,0.5,1.3,0.5c0.9,0,1.7-0.4,2.4-1.1
			c0.7-0.7,1.2-1.6,1.5-2.6C125.6,92.1,125.7,91.2,125.7,90.4"/>
		<path class="st0" d="M142,89.1c0,1.5-0.5,3.1-1.5,4.8c-1,1.7-2.3,3.4-3.9,4.9c-1.6,1.5-3.2,2.8-4.9,3.7c-1.7,0.9-3.2,1.4-4.5,1.4
			c-0.6,0-1.1-0.1-1.5-0.4c-0.4-0.2-0.6-0.6-0.6-1.1c0-0.4,0.1-0.7,0.4-0.9c0.3-0.2,0.6-0.4,1-0.4c0.3,0,0.6,0,0.8,0.1
			c0.2,0.1,0.5,0.2,0.8,0.3c0.7,0.2,1.2,0.4,1.6,0.4c0.6,0,1.1-0.2,1.6-0.5c0.5-0.4,0.8-0.8,1.1-1.3c0.7-1.2,1-3,1-5.2
			c0-0.5,0-1.1-0.1-1.7c0-0.6-0.1-1.2-0.2-1.8c-0.1-0.6-0.2-1.2-0.3-1.7c-0.1-0.3-0.2-0.5-0.4-0.7c-0.2-0.2-0.4-0.3-0.6-0.3
			c-0.7,0-1.1,0.8-1.2,2.3h-1.1c0.2-1.7,0.6-2.8,1.3-3.4c0.7-0.5,1.4-0.8,2-0.8c1.3,0,2.2,0.7,2.6,2.1c0.5,1.4,0.7,3.1,0.7,5
			c0,1.6-0.1,2.9-0.3,3.9c1.5-1.8,2.3-2.8,2.5-2.9c0.4-0.6,0.7-1.1,1-1.7c0.2-0.5,0.4-1.1,0.4-1.6c0-0.4-0.1-1-0.4-1.7
			c-0.3-0.7-0.4-1.3-0.4-1.6c0-0.4,0.1-0.7,0.3-1c0.2-0.3,0.5-0.4,0.8-0.4c0.3,0,0.6,0.1,0.8,0.3c0.3,0.2,0.5,0.5,0.6,0.8
			C142,88.1,142,88.6,142,89.1"/>
		<path class="st0" d="M176.3,80.2l-0.4,1.2c-0.6,0-1.1,0.1-1.5,0.2c-0.3,0.1-0.6,0.4-0.8,0.7c-0.2,0.3-0.4,0.9-0.6,1.6L170.5,94
			c-0.1,0.5-0.2,0.9-0.2,1.2c0,0.5,0.2,0.8,0.6,0.9c0.4,0.2,0.9,0.2,1.6,0.2l-0.4,1.2h-8.1l0.4-1.2c0.6,0,1.1,0,1.4-0.1
			c0.3-0.1,0.6-0.3,0.7-0.5c0.2-0.3,0.3-0.7,0.5-1.3l3-12l-10.2,15.1h-1.7l-1-15.1l-4.3,11.3c-0.2,0.6-0.4,1.1-0.4,1.3
			c0,0.5,0.2,0.8,0.6,1c0.4,0.1,0.9,0.3,1.6,0.3l-0.4,1.2h-5.7l0.4-1.2c0.6-0.1,1.1-0.4,1.6-1c0.5-0.6,0.9-1.3,1.2-2l3.8-9.9
			c0.1-0.3,0.2-0.5,0.2-0.8c0-0.4-0.2-0.7-0.5-0.9c-0.3-0.2-0.7-0.3-1.3-0.3h-0.3l0.3-1.2h6.3l0.9,13.2l9-13.2H176.3z"/>
		<path class="st0" d="M187.1,94.4c-0.2,0.5-0.5,1-0.8,1.4c-0.3,0.4-0.6,0.8-1,1.1c-0.4,0.3-0.8,0.6-1.1,0.7
			c-0.4,0.2-0.8,0.2-1.2,0.2c-0.9,0-1.5-0.3-1.7-0.8c-0.3-0.5-0.4-1.2-0.4-1.9c-0.7,0.8-1.4,1.5-2,2c-0.7,0.5-1.4,0.8-2.3,0.8
			c-0.5,0-0.9-0.1-1.3-0.4c-0.3-0.3-0.6-0.7-0.7-1.1c-0.2-0.5-0.2-1-0.2-1.5c0-1.2,0.3-2.4,0.9-3.6c0.6-1.3,1.4-2.4,2.4-3.2
			c1-0.9,2.1-1.3,3.3-1.3c0.5,0,1,0.1,1.3,0.3c0.3,0.2,0.5,0.5,0.6,0.7c0.1,0.3,0.2,0.6,0.3,0.9l0.5-1.6h2.8l-2.4,7.8
			c-0.2,0.6-0.3,0.9-0.3,1c0,0.1,0,0.2,0.1,0.3c0.1,0.1,0.2,0.1,0.3,0.1c0.6,0,1.1-0.6,1.8-1.8H187.1z M182.3,89.3
			c0-0.4-0.1-0.8-0.2-1.1c-0.2-0.3-0.4-0.4-0.9-0.4c-0.6,0-1.3,0.4-1.9,1.1c-0.6,0.7-1.1,1.6-1.5,2.7c-0.4,1-0.6,1.9-0.6,2.6
			c0,1,0.3,1.5,1,1.5c0.5,0,0.9-0.2,1.4-0.6c0.5-0.4,0.9-1,1.3-1.7c0.4-0.7,0.7-1.4,1-2.2C182.2,90.6,182.3,89.9,182.3,89.3"/>
		<path class="st0" d="M199,88.3c0,0.5-0.1,1-0.4,1.4c-0.3,0.4-0.7,0.6-1.1,0.6c-0.4,0-0.8-0.2-1.1-0.7c-0.2-0.3-0.4-0.4-0.6-0.4
			c-0.2,0-0.5,0.2-0.9,0.6c-0.4,0.4-0.8,1-1.2,1.7c-0.4,0.7-0.8,1.5-1.2,2.5c-0.4,0.9-0.8,1.9-1.1,2.8l-0.2,0.5h-3l2-7.2
			c0.2-0.7,0.3-1.2,0.3-1.4c0-0.1,0-0.2-0.1-0.3c-0.1-0.1-0.2-0.1-0.3-0.1c-0.3,0-0.7,0.2-1,0.7c-0.3,0.5-0.6,0.9-0.8,1.3H187
			c0.5-1,1-1.8,1.5-2.3c0.5-0.5,1-0.9,1.5-1.1c0.5-0.2,0.9-0.3,1.3-0.3c0.7,0,1.1,0.2,1.3,0.6c0.2,0.4,0.3,0.8,0.3,1.3
			c0,0.7-0.2,1.9-0.7,3.5c0.5-0.8,0.9-1.5,1.2-2c0.3-0.5,0.7-1,1.1-1.6c0.4-0.5,0.9-1,1.4-1.3c0.5-0.3,1-0.5,1.4-0.5
			c0.7,0,1.1,0.2,1.3,0.6C198.9,87.6,199,88,199,88.3"/>
		<path class="st0" d="M209.8,89.3c0,0.5-0.2,1-0.5,1.3c-0.3,0.3-0.7,0.5-1.2,0.5c-0.4,0-0.7-0.1-0.9-0.3c-0.2-0.2-0.3-0.5-0.3-0.8
			c0-0.2,0-0.4,0.1-0.7c0.1-0.2,0.1-0.4,0.1-0.6c0-0.4-0.1-0.7-0.4-0.8c-0.3-0.1-0.5-0.2-0.8-0.2c-0.7,0-1.4,0.4-2.1,1.2
			c-0.6,0.8-1.2,1.8-1.5,2.9c-0.4,1.1-0.6,2-0.6,2.7c0,0.8,0.2,1.3,0.6,1.5c0.4,0.2,0.8,0.3,1.1,0.3c0.8,0,1.5-0.2,2.1-0.6
			c0.6-0.4,1.2-0.9,1.6-1.4h1.4c-0.6,0.9-1.5,1.7-2.5,2.5c-1.1,0.7-2.3,1.1-3.7,1.1c-1.2,0-2.1-0.3-2.8-0.9c-0.6-0.6-1-1.4-1-2.4
			c0-1.2,0.3-2.4,1-3.7c0.7-1.3,1.6-2.3,2.8-3.1c1.2-0.8,2.5-1.2,4-1.2c0.5,0,1,0.1,1.4,0.2c0.4,0.1,0.8,0.3,1,0.6
			c0.3,0.3,0.5,0.5,0.7,0.9C209.7,88.7,209.8,89,209.8,89.3"/>
		<path class="st0" d="M221.6,88.8c0,0.3-0.1,0.8-0.3,1.2c-0.2,0.5-0.6,0.9-1.2,1.5c-0.6,0.5-1.4,1-2.4,1.4c-1.1,0.4-2.4,0.7-4,0.8
			l-0.3,0c-0.1,0.3-0.1,0.7-0.1,0.9c0,0.6,0.2,1.1,0.5,1.4c0.3,0.3,0.7,0.4,1.3,0.4c1.3,0,2.5-0.7,3.7-2.1h1.4
			c-0.5,0.8-1.3,1.6-2.4,2.4c-1.1,0.8-2.4,1.2-3.8,1.2c-1,0-1.9-0.3-2.6-0.8c-0.7-0.6-1.1-1.4-1.1-2.4c0-1.3,0.4-2.6,1.1-3.8
			c0.7-1.2,1.7-2.2,3-3c1.3-0.8,2.6-1.2,4.1-1.2c1.2,0,2,0.2,2.5,0.6C221.3,87.7,221.6,88.2,221.6,88.8 M218.9,88.7
			c0-0.3-0.1-0.5-0.3-0.8c-0.2-0.2-0.5-0.4-0.8-0.4c-0.6,0-1.1,0.2-1.6,0.6c-0.5,0.4-0.9,0.9-1.3,1.5c-0.3,0.6-0.6,1.1-0.8,1.7
			c-0.2,0.6-0.4,0.9-0.4,1.1c1.7-0.3,3-0.8,3.9-1.5C218.5,90.3,218.9,89.6,218.9,88.7"/>
		<path class="st0" d="M230.3,79.9l-4.5,14.7c-0.2,0.7-0.3,1.2-0.3,1.4c0,0.1,0,0.3,0.1,0.3c0.1,0.1,0.2,0.1,0.3,0.1
			c0.2,0,0.5-0.2,0.9-0.6c0.4-0.4,0.7-0.9,0.9-1.4h1.2c-0.4,0.8-1,1.6-1.7,2.3c-0.7,0.8-1.6,1.1-2.6,1.1c-0.6,0-1.2-0.2-1.5-0.5
			c-0.4-0.4-0.6-0.8-0.6-1.3c0-0.4,0.1-1,0.4-1.9l3.3-10.7c0.2-0.7,0.3-1.2,0.3-1.4c0-0.3-0.1-0.5-0.4-0.6c-0.2-0.1-0.7-0.1-1.4-0.1
			l0.3-1.2h1.4c0.6,0,1.1,0,1.6-0.1c0.5,0,0.9-0.1,1.4-0.2H230.3z"/>
		<path class="st0" d="M242.2,91.2c0,0.9-0.2,1.7-0.5,2.5c-0.3,0.8-0.8,1.5-1.5,2.2c-0.6,0.6-1.4,1.1-2.2,1.5
			c-0.9,0.4-1.8,0.5-2.8,0.5c-1,0-1.9-0.2-2.6-0.6c-0.8-0.4-1.3-0.9-1.8-1.6c-0.4-0.7-0.6-1.5-0.6-2.4c0-1.1,0.3-2.2,0.9-3.2
			c0.6-1,1.5-1.8,2.6-2.4c1.1-0.6,2.3-0.9,3.5-0.9c1,0,2,0.2,2.7,0.6c0.8,0.4,1.3,1,1.7,1.7C242,89.6,242.2,90.4,242.2,91.2
			 M239.1,90.3c0-0.8-0.2-1.4-0.5-1.9c-0.3-0.5-0.8-0.7-1.5-0.7c-0.6,0-1.2,0.2-1.7,0.7c-0.5,0.5-0.9,1.1-1.3,1.8
			c-0.3,0.7-0.6,1.4-0.8,2.2c-0.2,0.7-0.3,1.4-0.3,1.9c0,0.7,0.2,1.3,0.5,1.8c0.3,0.5,0.8,0.7,1.4,0.7c0.7,0,1.3-0.2,1.8-0.7
			c0.5-0.5,0.9-1.1,1.3-1.8c0.3-0.7,0.6-1.5,0.7-2.2C239.1,91.4,239.1,90.8,239.1,90.3"/>
		<path class="st0" d="M268.6,90l-0.4,1.2c-0.6,0-1,0.2-1.2,0.4c-0.2,0.3-0.5,0.8-0.7,1.6l-1.3,4.2l-1.5-1c-0.9,0.4-1.8,0.8-2.7,1
			c-0.8,0.2-1.8,0.4-2.9,0.4c-1.5,0-2.8-0.3-3.8-0.9c-1-0.6-1.8-1.5-2.2-2.5c-0.5-1-0.7-2.1-0.7-3.3c0-1.4,0.3-2.7,0.8-4
			c0.6-1.3,1.3-2.6,2.3-3.6c1-1.1,2.1-1.9,3.4-2.6c1.3-0.6,2.7-0.9,4.1-0.9c2.1,0,3.6,0.7,4.5,2.2c0.4-0.4,0.8-1,1.1-1.8h1.2l-1.3,6
			h-1.2c0-1.1-0.2-2.1-0.5-2.9c-0.6-1.5-1.8-2.3-3.4-2.3c-1.1,0-2.1,0.4-3.1,1.1c-0.9,0.7-1.7,1.6-2.3,2.8c-0.6,1.1-1.1,2.4-1.5,3.7
			c-0.3,1.3-0.5,2.5-0.5,3.7c0,0.6,0.1,1.2,0.2,1.8c0.2,0.6,0.5,1.2,1,1.7c0.5,0.5,1.3,0.7,2.3,0.7c0.9,0,1.8-0.2,2.6-0.7
			c0.8-0.5,1.4-1.2,1.7-2.3l0.1-0.5c0.1-0.3,0.1-0.5,0.1-0.7c0-0.8-0.6-1.2-1.7-1.2l0.4-1.2H268.6z"/>
		<path class="st0" d="M280.2,88.8c0,0.3-0.1,0.8-0.3,1.2c-0.2,0.5-0.6,0.9-1.2,1.5c-0.6,0.5-1.4,1-2.4,1.4c-1.1,0.4-2.4,0.7-4,0.8
			l-0.3,0c-0.1,0.3-0.1,0.7-0.1,0.9c0,0.6,0.2,1.1,0.5,1.4c0.3,0.3,0.7,0.4,1.3,0.4c1.3,0,2.5-0.7,3.7-2.1h1.4
			c-0.5,0.8-1.3,1.6-2.4,2.4c-1.1,0.8-2.4,1.2-3.8,1.2c-1,0-1.9-0.3-2.6-0.8c-0.7-0.6-1.1-1.4-1.1-2.4c0-1.3,0.4-2.6,1.1-3.8
			c0.7-1.2,1.7-2.2,3-3c1.3-0.8,2.6-1.2,4.1-1.2c1.2,0,2,0.2,2.5,0.6C280,87.7,280.2,88.2,280.2,88.8 M277.5,88.7
			c0-0.3-0.1-0.5-0.3-0.8c-0.2-0.2-0.5-0.4-0.8-0.4c-0.6,0-1.1,0.2-1.6,0.6c-0.5,0.4-0.9,0.9-1.3,1.5c-0.3,0.6-0.6,1.1-0.8,1.7
			c-0.2,0.6-0.4,0.9-0.4,1.1c1.7-0.3,3-0.8,3.9-1.5C277.1,90.3,277.5,89.6,277.5,88.7"/>
		<path class="st0" d="M304.8,94.1c-1.3,2.4-2.9,3.6-4.7,3.6c-0.6,0-1.2-0.2-1.5-0.5c-0.4-0.4-0.5-0.8-0.5-1.2
			c0-0.3,0.1-0.8,0.3-1.4l1-3.2c0.2-0.7,0.3-1.2,0.3-1.5c0-0.3-0.1-0.5-0.3-0.7c-0.2-0.2-0.4-0.3-0.7-0.3c-0.7,0-1.5,0.4-2.3,1.2
			c-0.8,0.8-1.6,1.8-2.3,3.1c-0.7,1.3-1.2,2.5-1.6,3.8l-0.2,0.6h-3l2-6.4c0.2-0.5,0.2-0.9,0.2-1.2c0-0.3-0.1-0.5-0.2-0.7
			c-0.1-0.2-0.4-0.3-0.7-0.3c-0.6,0-1.2,0.3-1.8,0.8c-0.6,0.5-1.2,1.2-1.8,2c-0.6,0.8-1.1,1.7-1.5,2.7c-0.5,1-0.8,1.9-1.1,2.8
			l-0.1,0.4h-3l2.2-7.3c0.2-0.8,0.4-1.3,0.4-1.5c0-0.1,0-0.2-0.1-0.3c-0.1-0.1-0.2-0.1-0.3-0.1c-0.1,0-0.3,0.1-0.5,0.2
			c-0.2,0.1-0.4,0.3-0.6,0.6c-0.2,0.3-0.5,0.7-0.7,1.2h-1.1c0.4-0.9,0.9-1.7,1.6-2.5c0.7-0.7,1.6-1.1,2.6-1.1c0.3,0,0.7,0.1,1,0.2
			c0.3,0.1,0.6,0.3,0.8,0.6c0.2,0.3,0.3,0.6,0.3,1.1c0,0.5-0.1,1.2-0.4,2.2l-0.4,1.2c0.5-0.8,1-1.6,1.5-2.2c0.5-0.7,1.1-1.2,1.7-1.7
			c0.6-0.5,1.2-0.8,1.7-1c0.5-0.2,1.1-0.3,1.6-0.3c0.7,0,1.3,0.2,1.7,0.5c0.4,0.4,0.7,0.9,0.7,1.5c0,0.4-0.1,1.1-0.4,2l-0.3,1.1
			c0.5-0.9,1.1-1.7,1.7-2.5c0.7-0.8,1.4-1.4,2.2-1.9c0.8-0.5,1.7-0.8,2.6-0.8c0.6,0,1,0.1,1.4,0.3c0.4,0.2,0.6,0.5,0.8,0.8
			c0.2,0.3,0.2,0.6,0.2,0.9c0,0.3,0,0.5-0.1,0.7c0,0.2-0.2,0.6-0.3,1.2l-1.2,4c-0.2,0.5-0.2,0.8-0.2,1c0,0.3,0.1,0.4,0.4,0.4
			c0.2,0,0.5-0.1,0.9-0.4c0.4-0.3,0.7-0.7,1.2-1.5H304.8z"/>
		<path class="st0" d="M318.2,94.4c-0.2,0.5-0.5,1-0.8,1.4c-0.3,0.4-0.6,0.8-1,1.1c-0.4,0.3-0.8,0.6-1.1,0.7
			c-0.4,0.2-0.8,0.2-1.2,0.2c-0.9,0-1.5-0.3-1.7-0.8c-0.3-0.5-0.4-1.2-0.4-1.9c-0.7,0.8-1.4,1.5-2,2c-0.7,0.5-1.4,0.8-2.3,0.8
			c-0.5,0-0.9-0.1-1.3-0.4c-0.3-0.3-0.6-0.7-0.7-1.1c-0.2-0.5-0.2-1-0.2-1.5c0-1.2,0.3-2.4,0.9-3.6c0.6-1.3,1.4-2.4,2.4-3.2
			c1-0.9,2.1-1.3,3.3-1.3c0.5,0,1,0.1,1.3,0.3c0.3,0.2,0.5,0.5,0.6,0.7c0.1,0.3,0.2,0.6,0.3,0.9l0.5-1.6h2.8l-2.4,7.8
			c-0.2,0.6-0.3,0.9-0.3,1c0,0.1,0,0.2,0.1,0.3c0.1,0.1,0.2,0.1,0.2,0.1c0.6,0,1.1-0.6,1.8-1.8H318.2z M313.4,89.3
			c0-0.4-0.1-0.8-0.2-1.1c-0.2-0.3-0.4-0.4-0.9-0.4c-0.6,0-1.3,0.4-1.9,1.1c-0.6,0.7-1.1,1.6-1.5,2.7c-0.4,1-0.6,1.9-0.6,2.6
			c0,1,0.3,1.5,1,1.5c0.5,0,0.9-0.2,1.4-0.6c0.5-0.4,0.9-1,1.3-1.7c0.4-0.7,0.7-1.4,1-2.2C313.3,90.6,313.4,89.9,313.4,89.3"/>
		<path class="st0" d="M329.8,88.8c0,0.3-0.1,0.7-0.4,0.9c-0.2,0.3-0.6,0.4-1,0.4c-0.3,0-0.5-0.1-0.7-0.2c-0.2-0.1-0.3-0.3-0.4-0.5
			c-0.1-0.2-0.2-0.5-0.4-0.9c-0.1-0.3-0.2-0.5-0.4-0.7c-0.2-0.2-0.5-0.2-1-0.2c-0.4,0-0.8,0.1-1.2,0.3c-0.4,0.2-0.5,0.5-0.5,0.9
			c0,0.3,0.1,0.5,0.2,0.7c0.1,0.2,0.3,0.4,0.5,0.7c0.2,0.2,0.5,0.5,1,0.9c0.8,0.7,1.4,1.3,1.8,1.7c0.4,0.5,0.6,1,0.6,1.7
			c0,0.6-0.2,1.1-0.5,1.6c-0.3,0.5-0.9,0.9-1.6,1.2c-0.8,0.3-1.7,0.5-2.9,0.5c-1.7,0-2.9-0.3-3.5-0.9c-0.7-0.6-1-1.2-1-1.8
			c0-0.4,0.1-0.7,0.4-1c0.3-0.3,0.6-0.4,1-0.4c0.9,0,1.4,0.6,1.5,1.7c0.1,0.5,0.2,0.9,0.4,1.1c0.2,0.3,0.6,0.4,1.3,0.4
			c0.6,0,1-0.1,1.4-0.4c0.4-0.3,0.5-0.7,0.5-1.1c0-0.2-0.1-0.5-0.2-0.7c-0.1-0.2-0.4-0.5-0.8-0.8c-0.7-0.6-1.3-1.1-1.7-1.5
			c-0.4-0.4-0.8-0.9-1-1.3c-0.2-0.4-0.3-0.8-0.3-1.3c0-0.4,0.1-0.8,0.4-1.3c0.3-0.5,0.8-0.9,1.5-1.2c0.7-0.4,1.7-0.5,3-0.5
			c0.8,0,1.4,0.1,1.9,0.2c0.5,0.1,0.9,0.3,1.2,0.5c0.3,0.2,0.5,0.4,0.6,0.7C329.7,88.3,329.8,88.6,329.8,88.8"/>
	</g>
	<path class="st0" d="M91.8,24.3c-2.2,0-4.5,0.9-6.9,2.8c-2.3,1.8-4,3.7-5.1,6.4c-0.1-4-0.1-7.8-0.1-7.8s-8.3,0-11.3,0.1l0,2.3h1
		c3.5,0,4.2,1.7,4.2,3.1c0,1,0.1,4.8,0.1,8.8v8.4h0v1.9c0,4,0,8.3,0,9.3c0,5.1,5.6,4.9,5.6,4.9h7.5v-2.1h-1c-1.8,0-3.1-0.3-3.9-0.8
		c-0.8-0.5-1.2-1.2-1.4-2.1c-0.2-0.9-0.2-4.9-0.2-9.2v-0.2h0v-6.2c0-3.4,0.3-6,0.8-7.9c0.5-1.9,1.7-3.8,3.5-5.6
		c1.8-1.8,3.4-2.7,4.7-2.7c1.1,0,1.9,0.8,2.5,2.3c0.8,2.3,2,3.4,3.5,3.4c0.9,0,1.6-0.3,2.2-1c0.6-0.6,0.9-1.4,0.9-2.3
		c0-1.3-0.6-2.6-1.7-3.9C95.4,24.9,93.8,24.3,91.8,24.3"/>
	<path class="st0" d="M292.1,24.3c-2.2,0-4.5,0.9-6.9,2.8c-2.3,1.8-4,3.7-5.1,6.4c-0.1-4-0.1-7.8-0.1-7.8s-8.3,0-11.3,0.1l0,2.3h1
		c3.5,0,4.2,1.7,4.2,3.1c0,1,0.1,4.8,0.1,8.8v8.4h0v1.9c0,4,0,8.3,0,9.3c0,5.1,5.6,4.9,5.6,4.9h7.5v-2.1h-1c-1.8,0-3.1-0.3-3.9-0.8
		c-0.8-0.5-1.2-1.2-1.4-2.1c-0.2-0.9-0.2-4.9-0.2-9.2v-0.2h0v-6.2c0-3.4,0.3-6,0.8-7.9c0.5-1.9,1.7-3.8,3.5-5.6
		c1.8-1.8,3.4-2.7,4.7-2.7c1.1,0,1.9,0.8,2.5,2.3c0.8,2.3,2,3.4,3.5,3.4c0.9,0,1.6-0.3,2.2-1c0.6-0.6,0.9-1.4,0.9-2.3
		c0-1.3-0.6-2.6-1.7-3.9C295.7,24.9,294.1,24.3,292.1,24.3"/>
	<path class="st0" d="M61.7,56.2l-2.8-6.5L38.1,0.3h-1.8L18.2,43.4c-1.3,3.1-7,16.9-7.2,17.3c-1.9,4.9-3.5,8-4.9,9.5
		c-1.3,1.5-3.4,2.5-6.1,2.9v2.1h2.4c0,0,5.1,0.8,7.6-5.4c0.7-1.6,7.8-19.8,10.2-25.6l1.6-3.9l11.8-28.3l11.8,28.3l4.8,11.5
		c1.4,3.3,2.1,5.3,2.1,6c0,1.3-0.5,2.2-1.6,2.6c-1.1,0.4-3.1,0.7-6.1,0.7v2.1h24.4v-2.1c-2.1-0.2-3.8-0.7-4.8-1.6
		C63.2,58.8,62.4,57.7,61.7,56.2"/>
	<path class="st0" d="M209.7,8.6C203.3,2.9,195.2,0,185.5,0c-9.6,0-17.6,2.9-24,8.7c-6.4,5.8-9.6,13.5-9.6,23.1
		c0,9.8,3.2,17.8,9.5,23.7c6.3,6,14.4,8.9,24.3,8.9c10.1,0,18.3-3,24.5-8.9c6.2-6,9.3-13.8,9.3-23.4
		C219.5,22.2,216.2,14.4,209.7,8.6 M202.9,54.7c-4.1,5-9.6,7.5-16.6,7.5c-8,0-14-2.5-18-7.5c-4-5-6-12.5-6-22.5c0-9.8,2-17.3,6-22.3
		c4-5,9.7-7.5,17.2-7.5c7.6,0,13.4,2.6,17.4,7.7c4,5.2,6,12.6,6,22.2C209,42.2,206.9,49.7,202.9,54.7"/>
	<path class="st0" d="M261.6,50.4V25.8H255c0,0,0,8.8,0,12.9v8.5c0,3.2-0.4,5.7-1.2,7.4c-0.8,1.7-2.2,3.4-4.4,4.9
		c-2.1,1.5-4.4,2.3-6.8,2.3c-1.7,0-3.1-0.4-4.4-1.3c-1.3-0.9-2-1.9-2.3-3c-0.3-1.2-0.5-3-0.5-5.6V25.8h-12.7v2.1
		c2.2,0,3.7,0.2,4.5,0.7c0.8,0.5,1.3,1.2,1.4,2.1c0.2,1,0.2,3.6,0.2,8v12.8c0,3.3,0.4,5.8,1.1,7.5c0.7,1.7,2,3.1,4,4.2
		c1.9,1.1,4.1,1.7,6.7,1.7c2.9,0,5.6-0.7,8-2.2c2.4-1.5,4.5-3.7,6.4-6.6C255.1,60.2,261.6,54.5,261.6,50.4"/>
	<path class="st0" d="M334,30.1c-3.8-3.9-8.6-5.8-14.3-5.8c-5.6,0-10.4,1.9-14.2,5.8c-3.8,3.9-5.8,8.7-5.8,14.4
		c0,6.2,1.9,11.2,5.8,14.8c3.9,3.7,8.6,5.5,14.1,5.5c5.5,0,10.2-1.8,14.2-5.4c3.9-3.6,5.9-8.6,5.9-14.9
		C339.8,38.8,337.9,34,334,30.1 M329,58.7c-2.1,2.7-5.2,4-9.2,4c-3.9,0-7-1.3-9.1-4c-2.2-2.7-3.3-7.3-3.3-14
		c0-6.6,1.1-11.4,3.2-14.2c2.1-2.8,5.2-4.2,9.2-4.2c4,0,7.1,1.4,9.2,4.2c2.1,2.8,3.2,7.5,3.2,14.1C332.2,51.4,331.1,56.1,329,58.7"
		/>
	<path class="st0" d="M107.1,48h6.6V27.8H125v-2.1h-11.3v-7.1h-2.5l-0.9,3.5c0,0-0.2,0.7-0.5,1.5c-0.3,0.8-1.9,2.2-8.1,2.2v2.1h5.4
		V48z"/>
	<path class="st0" d="M115.3,61.3c-0.8-0.5-1.2-1.2-1.4-2.1c-0.2-0.9-0.2-4.9-0.2-9.2v-0.2h0v-6.2c0-0.8,0-1.6,0-2.4h-6.6v6.8h0V50
		c0,4,0,8.3,0,9.3c0,5.1,5.6,4.9,5.6,4.9h7.5v-2.1h-1C117.4,62.1,116.1,61.8,115.3,61.3"/>
	<path class="st0" d="M263.3,61.3c-0.8-0.5-1.2-1.2-1.4-2.1c-0.2-0.9-0.2-4.9-0.2-9.2v-0.2h0l-0.1-6.5c0-0.8-1.2-1.3-1.2-2h-5.3v6.8
		h0V50c0,4,0,8.3,0,9.3c0,5.1,5.6,4.9,5.6,4.9h7.5v-2.1h-1C265.4,62.1,264,61.8,263.3,61.3"/>
	<path class="st1" d="M39.5,34.9l-5.9-2l-5.9,2l-3.1,4.9l1.1,5.6l4.8,3.7h6.3l4.8-3.7l1.1-5.6L39.5,34.9z M38.2,43.9l-2.9,2.2h-3.8
		l-2.9-2.2l-0.7-3.4l1.9-3l3.6-1.2l3.6,1.2l1.9,3L38.2,43.9z"/>
</g>
</svg>
